<svg width="24" height="24" viewBox="0 0 24 24" fill="none" xmlns="http://www.w3.org/2000/svg">
<path fill-rule="evenodd" clip-rule="evenodd" d="M8.84239 6.35247L8.1002 7.09466L17.2926 16.2871L18.0348 15.5449C18.0818 15.4981 18.141 15.4655 18.2056 15.4506C18.2702 15.4357 18.3377 15.4393 18.4004 15.4608C18.4632 15.4824 18.5186 15.521 18.5605 15.5724C18.6023 15.6239 18.629 15.686 18.6374 15.7518L18.9929 18.596C18.9995 18.6495 18.9938 18.7038 18.9762 18.7548C18.9586 18.8059 18.9297 18.8522 18.8915 18.8903C18.8534 18.9285 18.8071 18.9574 18.7561 18.975C18.7051 18.9925 18.6507 18.9982 18.5972 18.9917L15.752 18.6372C15.6861 18.6288 15.6239 18.602 15.5724 18.56C15.5209 18.518 15.4823 18.4624 15.4608 18.3996C15.4394 18.3367 15.436 18.2691 15.4511 18.2044C15.4661 18.1397 15.4991 18.0805 15.5461 18.0336L16.2883 17.2914L7.09589 8.09898L6.35369 8.84117C6.30667 8.88793 6.2475 8.92058 6.18287 8.93543C6.11824 8.95028 6.05075 8.94675 5.98803 8.92521C5.92531 8.90368 5.86988 8.86501 5.828 8.81359C5.78613 8.76218 5.75949 8.70006 5.75111 8.63428L5.39558 5.79006C5.38901 5.73652 5.39472 5.68219 5.41228 5.63119C5.42984 5.58018 5.45879 5.53385 5.49693 5.49571C5.53507 5.45757 5.5814 5.42862 5.63241 5.41106C5.68341 5.3935 5.73774 5.38779 5.79128 5.39436L8.63651 5.74888C8.7024 5.75728 8.76462 5.784 8.81609 5.826C8.86756 5.86801 8.90622 5.9236 8.92766 5.98648C8.94911 6.04935 8.95249 6.11698 8.93742 6.18168C8.92234 6.24638 8.88942 6.30555 8.84239 6.35247Z" fill="#444750"/>
<path fill-rule="evenodd" clip-rule="evenodd" d="M19.8705 3.42032H4.1317C3.94335 3.42032 3.76272 3.49514 3.62954 3.62832C3.49636 3.7615 3.42154 3.94213 3.42154 4.13048V19.8695C3.42154 20.0579 3.49636 20.2385 3.62954 20.3717C3.76272 20.5049 3.94335 20.5797 4.1317 20.5797H19.8705C20.0588 20.5797 20.2394 20.5049 20.3726 20.3717C20.5058 20.2385 20.5806 20.0579 20.5806 19.8695V4.13048C20.5806 3.94213 20.5058 3.7615 20.3726 3.62832C20.2394 3.49514 20.0588 3.42032 19.8705 3.42032ZM4.1317 2C3.56666 2 3.02476 2.22446 2.62522 2.624C2.22568 3.02354 2.00122 3.56544 2.00122 4.13048V19.8695C2.00122 20.4346 2.22568 20.9765 2.62522 21.376C3.02476 21.7755 3.56666 22 4.1317 22H19.8705C20.4355 22 20.9774 21.7755 21.3769 21.376C21.7765 20.9765 22.0009 20.4346 22.0009 19.8695V4.13048C22.0009 3.56544 21.7765 3.02354 21.3769 2.624C20.9774 2.22446 20.4355 2 19.8705 2H4.1317Z" fill="#444750"/>
</svg>
