<svg width="24" height="24" viewBox="0 0 24 24" fill="none" xmlns="http://www.w3.org/2000/svg">
<path d="M11.9994 18.9868C12.0027 20.1067 11.1169 20.9983 9.9996 20.9999C8.88925 21.0015 8.0031 20.1206 7.9994 19.011C7.9953 17.887 8.87693 16.9999 9.99754 16.9999C11.1108 16.9999 11.9961 17.8783 11.9994 18.9868Z" fill="white"/>
<path d="M18.9994 18.9868C19.0027 20.1067 18.1169 20.9983 16.9996 20.9999C15.8892 21.0015 15.0031 20.1206 14.9994 19.011C14.9953 17.887 15.8769 16.9999 16.9975 16.9999C18.1108 16.9999 18.9961 17.8783 18.9994 18.9868Z" fill="white"/>
<path d="M14.1697 5.09444C15.968 5.09444 17.7649 5.09444 19.5631 5.09444C21.3862 5.09582 22.3136 6.24781 21.9057 8.03229C21.4661 9.9532 21.0031 11.8686 20.5498 13.7867C20.5236 13.8997 20.4933 14.0114 20.4671 14.1243C20.0909 15.7187 19.5094 16.1762 17.86 16.1762C14.7581 16.1762 11.6549 16.1775 8.55308 16.1762C7.43003 16.1762 6.63493 15.5726 6.38276 14.4854C5.72547 11.6481 5.08471 8.8081 4.44808 5.9667C4.37229 5.62772 4.23725 5.40035 3.89413 5.26393C3.41046 5.07239 2.94746 4.82711 2.48032 4.59286C2.05453 4.37651 1.89468 3.92729 2.06831 3.48634C2.22126 3.09775 2.68427 2.89519 3.12246 3.05503C3.83212 3.31271 4.51009 3.64343 5.16738 4.01411C5.63039 4.27454 5.66806 4.76924 5.78381 5.26393C6.3033 7.47835 6.81178 9.69552 7.32714 11.9113C7.49801 12.6444 7.79244 13.5843 7.95779 14.3188C8.02669 14.6233 8.20307 14.7625 8.50899 14.7611C8.91549 14.7597 9.32062 14.7639 9.72712 14.7639C12.4376 14.7639 15.392 14.7451 18.1025 14.7451C18.7763 14.7451 18.8218 14.7092 18.9761 14.0464C19.4529 12.0001 19.9931 9.54621 20.4671 7.49991C20.6159 6.85639 20.4864 6.6993 19.8043 6.6993C16.194 6.6993 12.3425 6.71809 8.73222 6.71809C8.57237 6.71809 8.41253 6.72498 8.25406 6.70844C7.80208 6.66021 7.49066 6.44211 7.47275 6.00942C7.45621 5.57949 7.75937 5.20744 8.21272 5.12889C8.38221 5.09995 8.55859 5.10133 8.73222 5.09995C10.5443 5.09858 12.3563 5.09995 14.1683 5.09995L14.1697 5.09444Z" fill="white"/>
</svg>
