<svg width="24" height="24" viewBox="0 0 24 24" fill="none" xmlns="http://www.w3.org/2000/svg">
<g clip-path="url(#clip0_1608_2233)">
<path d="M6.32265 10.5716C5.5177 10.5716 4.71186 10.5821 3.9069 10.568C2.76714 10.5496 2.01666 9.7956 2.00963 8.65056C1.99821 7.06876 1.99733 5.48785 2.00963 3.90606C2.0193 2.76805 2.7812 2.01494 3.92448 2.00791C5.52033 1.99736 7.11618 1.99736 8.71204 2.00791C9.87114 2.01494 10.6322 2.78299 10.6383 3.94648C10.6471 5.51334 10.648 7.08019 10.6383 8.64616C10.6313 9.78505 9.8729 10.5417 8.7384 10.5707C8.7094 10.5707 8.67952 10.5707 8.65052 10.5707C7.87457 10.5707 7.09861 10.5707 6.32265 10.5707V10.5716ZM6.28311 9.13388C7.05906 9.13388 7.83502 9.12773 8.6101 9.13652C9.01609 9.14091 9.20063 8.94934 9.19976 8.55125C9.198 7.04328 9.20327 5.53618 9.19624 4.02821C9.1936 3.57652 9.04158 3.43943 8.57231 3.43855C7.06434 3.43504 5.55724 3.43416 4.04927 3.43855C3.59494 3.44031 3.44203 3.59146 3.44028 4.04403C3.43588 5.53706 3.43588 7.0301 3.44028 8.52313C3.44203 8.98185 3.58791 9.12861 4.04311 9.13212C4.78919 9.13828 5.53615 9.13388 6.28223 9.13388H6.28311Z" fill="white"/>
<path d="M6.33935 21.993C5.54846 21.993 4.75844 22 3.96754 21.9912C2.80053 21.9789 2.03336 21.2232 2.02633 20.0667C2.01667 18.4998 2.01755 16.9339 2.02633 15.367C2.03248 14.2035 2.79087 13.4381 3.95436 13.4293C5.55021 13.417 7.14607 13.417 8.74192 13.4293C9.8896 13.439 10.6453 14.1903 10.6541 15.331C10.6664 16.9119 10.6656 18.4937 10.6541 20.0746C10.6462 21.2372 9.88608 21.9789 8.71116 21.9912C7.92027 21.9991 7.13025 21.993 6.33935 21.993ZM6.33232 14.8644C5.58624 14.8644 4.83929 14.8608 4.09321 14.8652C3.61867 14.8688 3.47104 14.9979 3.4684 15.4523C3.46049 16.9594 3.46664 18.4673 3.46489 19.9744C3.46489 20.3708 3.64591 20.5641 4.05366 20.5623C5.5757 20.5562 7.09773 20.5623 8.61977 20.5579C9.07234 20.5562 9.22173 20.4041 9.22261 19.9472C9.227 18.4542 9.227 16.9611 9.22261 15.469C9.22085 15.0129 9.0741 14.8688 8.6145 14.8652C7.85348 14.8591 7.09246 14.8635 6.33144 14.8635L6.33232 14.8644Z" fill="white"/>
<path d="M17.7142 13.4267C18.5051 13.4267 19.296 13.417 20.086 13.4284C21.2311 13.446 21.9833 14.1939 21.9912 15.3371C22.0035 16.9181 22.0035 18.4998 21.9912 20.0808C21.9824 21.224 21.2258 21.9807 20.0851 21.9886C18.4743 22 16.8636 22.0009 15.2536 21.9886C14.1455 21.9798 13.3731 21.2091 13.3634 20.1036C13.3502 18.5078 13.3502 16.9119 13.3634 15.316C13.3722 14.2114 14.142 13.4487 15.2536 13.4302C16.0735 13.4161 16.8934 13.4276 17.7133 13.4276L17.7142 13.4267ZM17.6747 20.5623C18.4357 20.5623 19.1967 20.5667 19.9586 20.5606C20.4094 20.5571 20.5588 20.4059 20.5606 19.9489C20.5649 18.4559 20.5649 16.9629 20.5606 15.4698C20.5588 15.0138 20.412 14.867 19.9524 14.8661C18.4445 14.8617 16.9374 14.8635 15.4294 14.8679C14.9426 14.8696 14.8055 15.0058 14.8037 15.4997C14.7984 16.9778 14.7984 18.4568 14.8037 19.9349C14.8055 20.4252 14.9461 20.5579 15.4355 20.5614C16.1825 20.5658 16.9286 20.5623 17.6755 20.5623H17.6747Z" fill="white"/>
<path d="M21.9964 6.26117C22.0035 8.65759 20.108 10.5654 17.7168 10.5689C15.3406 10.5724 13.4442 8.68746 13.4363 6.31302C13.4275 3.90782 15.3142 2.00967 17.7124 2.00967C20.0948 2.00967 21.9894 3.88936 21.9964 6.26117ZM20.5623 6.28753C20.5605 4.75583 19.2573 3.44382 17.7353 3.44031C16.1702 3.43679 14.8713 4.73035 14.8731 6.29105C14.8749 7.85614 16.1772 9.14618 17.7405 9.13124C19.2898 9.11631 20.564 7.8333 20.5623 6.28753Z" fill="white"/>
</g>
<defs>
<clipPath id="clip0_1608_2233">
<rect width="20" height="19.9982" fill="white" transform="translate(2.00085 2)"/>
</clipPath>
</defs>
</svg>
