<svg width="24" height="24" viewBox="0 0 24 24" fill="none" xmlns="http://www.w3.org/2000/svg">
<path d="M12.7299 13.6342C12.7299 14.7499 12.7319 15.8006 12.7299 16.8514C12.7279 17.5712 12.4896 17.7992 11.7457 17.8012C10.6903 17.8051 9.63594 17.806 8.58055 17.8089C8.54989 17.8089 8.52022 17.8293 8.42724 17.8623C8.42724 18.7559 8.42724 19.6737 8.42724 20.5905C8.42724 21.974 8.40251 21.9983 6.98609 21.9983C5.63397 21.9983 4.28283 22.0002 2.9307 21.9973C2.33031 21.9963 1.99796 21.7392 2.00588 21.2949C2.01379 20.8534 2.34218 20.6128 2.95246 20.6119C4.28382 20.6099 5.61616 20.6119 7.00686 20.6119C7.00686 19.5446 7.00686 18.5153 7.00686 17.4868C7.00686 16.5768 7.17502 16.4109 8.09687 16.4099C9.13248 16.4099 10.1681 16.4099 11.2779 16.4099C11.2779 15.9064 11.2779 15.4446 11.2779 14.9837C11.2779 14.3696 11.2749 13.7545 11.2779 13.1404C11.2818 12.4263 11.5252 12.1925 12.268 12.1905C13.1908 12.1876 14.1147 12.1905 15.0375 12.1905C15.1988 12.1905 15.36 12.1905 15.5806 12.1905C15.5806 11.5638 15.5806 10.9855 15.5806 10.4083C15.5806 9.85817 15.5707 9.30807 15.5855 8.75894C15.5984 8.26511 15.8545 8.008 16.354 8.00509C17.9693 7.99636 19.5855 7.99733 21.2007 8.00509C21.6824 8.00703 21.991 8.28548 22.0009 8.6852C22.0118 9.10336 21.6973 9.38762 21.181 9.39151C19.9772 9.40024 18.7744 9.39442 17.5707 9.39442C17.3946 9.39442 17.2175 9.39442 17.0009 9.39442C17.0009 10.5198 17.0029 11.5842 17.0009 12.6485C16.9999 13.379 16.7675 13.6128 16.0336 13.6148C15.0939 13.6177 14.1542 13.6148 13.2146 13.6167C13.0583 13.6167 12.903 13.6293 12.7299 13.6371V13.6342Z" fill="#444750"/>
<path d="M10.2489 3.41234C9.86512 3.41234 9.60004 3.43113 9.3399 3.40838C8.93634 3.37278 8.65939 3.0612 8.68313 2.68336C8.70884 2.27782 8.94425 2.02658 9.34188 2.01669C10.2479 1.99394 11.1549 1.99493 12.061 2.01669C12.4626 2.02658 12.7069 2.29859 12.7177 2.69028C12.7415 3.56368 12.7405 4.43806 12.7207 5.31145C12.7108 5.7526 12.3973 6.02658 11.9898 6.01966C11.5872 6.01274 11.3083 5.73084 11.2806 5.28474C11.2667 5.05824 11.2786 4.82975 11.2786 4.46378C10.9274 4.80799 10.6614 5.06417 10.4012 5.32431C8.10548 7.62105 5.81072 9.91976 3.51399 12.2155C2.95217 12.7763 2.57037 12.8525 2.21033 12.4915C1.85622 12.1354 1.94821 11.7506 2.50805 11.1918C4.99272 8.71007 7.47442 6.22738 9.95711 3.7437C10.0343 3.66655 10.1025 3.5795 10.2499 3.41333L10.2489 3.41234Z" fill="#444750"/>
</svg>
