<svg width="24" height="24" viewBox="0 0 24 24" fill="none" xmlns="http://www.w3.org/2000/svg">
<g clip-path="url(#clip0_1608_2251)">
<path d="M2.00524 14.3398C2.00524 12.0858 1.99138 9.83124 2.00928 7.57781C2.02776 5.2215 3.57893 3.08944 5.79653 2.32076C8.6234 1.34114 11.6761 2.66869 12.8761 5.42552C13.1025 5.94567 13.2763 6.44502 13.9982 6.23176C15.3449 6.3618 16.3215 7.02586 16.9007 8.25517C16.9729 8.40832 17.0462 8.47883 17.238 8.48346C17.8969 8.49848 18.4166 8.79093 18.6788 9.40933C18.8371 9.78269 18.9982 10.1925 19.0011 10.5866C19.0069 11.3397 18.5726 11.8564 17.8871 12.1604C15.7532 13.1082 13.6205 14.059 11.4861 15.0062C10.4489 15.4663 9.50697 15.0906 9.0288 14.0624C8.78163 13.5313 8.65747 13.0117 8.92601 12.4574C8.9595 12.3887 8.98722 12.306 9.04266 12.2604C9.3395 12.0165 9.27482 11.7645 9.15701 11.4362C8.68865 10.1318 8.96181 8.95507 9.88466 7.93267C10.0181 7.78529 10.0412 7.67837 9.95049 7.50788C9.83788 7.29635 9.75414 7.06979 9.65597 6.85074C9.22053 5.8769 8.25668 5.37235 7.22758 5.57752C6.25045 5.77287 5.53781 6.65482 5.53665 7.70496C5.53203 12.1841 5.53434 16.6638 5.53434 21.1429C5.53434 21.8249 5.36167 21.9988 4.68657 21.9988C4.02245 21.9988 3.35775 22.0012 2.69362 21.9983C2.22469 21.996 2.00408 21.7752 2.00408 21.3047C2.00235 18.9831 2.00351 16.6615 2.00351 14.3398H2.00466H2.00524ZM3.17063 20.8013H4.35798C4.35798 20.6493 4.35798 20.5251 4.35798 20.4002C4.35798 16.2112 4.35336 12.0223 4.36491 7.83384C4.36606 7.43563 4.4088 7.01893 4.53123 6.64326C4.958 5.33189 6.15343 4.41641 7.43605 4.36209C8.92196 4.29967 10.1382 5.04291 10.7347 6.37798C10.8427 6.61956 10.9525 6.85999 11.0674 7.11602C11.437 6.949 11.7742 6.797 12.1277 6.6369C12.0099 6.36469 11.9065 6.1179 11.7968 5.87401C10.7983 3.64658 8.3023 2.61667 6.03215 3.494C4.29561 4.16558 3.17352 5.83702 3.17121 7.78009C3.16717 12.0269 3.17006 16.2731 3.17006 20.5199C3.17006 20.606 3.17006 20.6915 3.17006 20.8008L3.17063 20.8013ZM10.4298 11.3767C12.2536 10.5641 14.0814 9.74975 15.9063 8.93599C15.4084 7.64485 14.1299 7.08424 12.9015 7.59283C12.4049 7.79858 11.9123 8.01647 11.4254 8.24476C10.2242 8.80827 9.73855 10.3127 10.4292 11.3767H10.4298ZM17.8415 10.4485C17.8028 10.3497 17.7439 10.1792 17.6699 10.015C17.5071 9.65381 17.3465 9.59023 16.9902 9.74686C16.2435 10.0751 15.498 10.4063 14.7524 10.738C13.2792 11.3934 11.8043 12.0454 10.3363 12.7129C10.1873 12.7805 9.95973 12.9736 9.97937 13.0614C10.0458 13.3556 10.1636 13.6625 10.3455 13.9C10.5055 14.1092 10.7786 14.0335 11.0125 13.9283C12.0636 13.4573 13.1169 12.9915 14.1697 12.5233C15.2485 12.0436 16.3261 11.561 17.4054 11.0831C17.6509 10.9744 17.8293 10.8213 17.8415 10.4485Z" fill="white"/>
<path d="M13.1423 20.558C13.1423 20.6112 13.1498 20.7077 13.1411 20.8025C13.1134 21.0978 12.8858 21.3255 12.6034 21.3498C12.3303 21.3735 12.0531 21.2082 12.0017 20.925C11.9491 20.6366 11.9364 20.3332 11.9607 20.0413C11.9826 19.7784 12.2881 19.5732 12.5474 19.5876C12.8223 19.6027 13.0562 19.8067 13.1024 20.0858C13.1255 20.2274 13.1278 20.3719 13.1434 20.558H13.1423Z" fill="white"/>
<path d="M22.0001 16.7938C21.9746 17.0816 21.8886 17.2724 21.6628 17.3804C21.4272 17.4931 21.2066 17.4556 21.0177 17.2932C20.8503 17.1498 20.6943 16.9897 20.5517 16.8216C20.3409 16.573 20.3657 16.2263 20.5927 16.0136C20.8064 15.813 21.1511 15.8021 21.3827 16.0055C21.5485 16.1511 21.7073 16.3083 21.847 16.4794C21.9279 16.5788 21.9637 16.7146 22.0006 16.7938H22.0001Z" fill="white"/>
<path d="M17.5931 17.7769C17.5856 17.4272 17.7144 17.2348 17.9621 17.1406C18.2237 17.0412 18.4645 17.1082 18.6314 17.3325C18.7683 17.5163 18.8873 17.7174 18.9877 17.9243C19.1125 18.1803 19.0449 18.4179 18.8347 18.6005C18.6222 18.7854 18.3612 18.8138 18.1446 18.6456C17.8431 18.4115 17.6855 18.0694 17.5937 17.7769H17.5931Z" fill="white"/>
<path d="M18.7123 15.1443C18.5229 15.053 18.3779 15.0143 18.2752 14.9264C18.1083 14.7837 17.9587 14.6172 17.8201 14.4456C17.6411 14.2231 17.6682 13.8763 17.8611 13.6792C18.0725 13.4631 18.4103 13.4342 18.6453 13.6382C18.8261 13.7948 18.9947 13.9705 19.1426 14.1584C19.2898 14.345 19.3314 14.5814 19.1772 14.7744C19.0571 14.9247 18.8711 15.0224 18.7123 15.1449V15.1443Z" fill="white"/>
<path d="M12.0376 16.869C12.0376 16.7539 12.0283 16.6383 12.0393 16.5245C12.067 16.2471 12.2668 16.0477 12.5406 16.0124C12.808 15.9778 13.0909 16.1228 13.147 16.3869C13.2082 16.6736 13.2336 16.977 13.2151 17.2695C13.1972 17.5573 12.9408 17.737 12.6509 17.737C12.3546 17.737 12.115 17.5388 12.0682 17.2435C12.0485 17.1209 12.0537 16.9944 12.0474 16.8695C12.0439 16.8695 12.041 16.8695 12.0376 16.8695V16.869Z" fill="white"/>
<path d="M15.5217 20.0367C15.5026 20.0367 15.483 20.0379 15.4639 20.0367C14.9482 19.9916 14.9239 19.5628 14.82 19.2027C14.7143 18.8369 14.7871 18.5988 15.0342 18.4398C15.3438 18.2398 15.755 18.3676 15.8924 18.7219C15.9721 18.927 16.0322 19.1415 16.0784 19.3564C16.154 19.709 15.8826 20.0321 15.5217 20.0379V20.0367Z" fill="white"/>
<path d="M15.581 16.4054C15.6411 16.4054 15.6318 16.4054 15.622 16.4054C15.175 16.3858 15.1086 16.0049 14.9602 15.7038C14.8332 15.446 14.8026 15.1894 15.0105 14.9536C15.2622 14.6675 15.7208 14.6895 15.9241 15.0195C16.0528 15.2293 16.1545 15.4634 16.2244 15.6998C16.3335 16.0679 16.0396 16.4135 15.5804 16.406L15.581 16.4054Z" fill="white"/>
</g>
<defs>
<clipPath id="clip0_1608_2251">
<rect width="20" height="20" fill="white" transform="translate(2 2)"/>
</clipPath>
</defs>
</svg>
