<svg width="24" height="24" viewBox="0 0 24 24" fill="none" xmlns="http://www.w3.org/2000/svg">
<g clip-path="url(#clip0_1608_2235)">
<path d="M2.94876 11.9988C2.94876 9.3118 2.95396 6.62476 2.9453 3.93772C2.94298 3.16991 3.1943 2.55 3.90318 2.20336C4.16143 2.07684 4.47513 2.00982 4.764 2.00924C9.58808 1.99769 14.4122 1.99827 19.2368 2.00347C20.3137 2.00462 21.0549 2.75048 21.0555 3.82391C21.059 9.27483 21.059 14.7257 21.0555 20.1772C21.0549 21.2391 20.3206 21.9931 19.2634 21.9948C14.4197 22.0023 9.57653 22.0017 4.7328 21.9948C3.72177 21.9936 3.02156 21.324 2.96205 20.3188C2.93316 19.8295 2.94934 19.3372 2.94934 18.8461C2.94818 16.5635 2.94934 14.2809 2.94934 11.9988H2.94876ZM4.10423 7.21289C4.10423 7.33653 4.10423 7.43128 4.10423 7.5266C4.10423 11.7065 4.10423 15.8858 4.10423 20.0657C4.10423 20.6562 4.29142 20.8451 4.87493 20.8451C9.62217 20.8451 14.3694 20.8451 19.1167 20.8451C19.7077 20.8451 19.8925 20.6608 19.8931 20.0715C19.8931 15.8916 19.8931 11.7123 19.8931 7.53238V7.21347H4.10423V7.21289ZM4.11463 6.02103H19.8931C19.8931 5.32313 19.8931 4.64198 19.8931 3.96141C19.8931 3.32994 19.7186 3.15489 19.0918 3.15489C14.3642 3.15489 9.63661 3.15489 4.90844 3.15489C4.81195 3.15489 4.71374 3.14507 4.62015 3.16124C4.34803 3.20804 4.13023 3.36172 4.12214 3.64134C4.10019 4.42822 4.11463 5.21567 4.11463 6.02103Z" fill="white"/>
<path d="M12.0082 19.5845C8.93004 19.5989 6.44 17.1222 6.41401 14.0203C6.38859 10.9803 8.94853 8.42382 12.0036 8.43711C15.0592 8.4504 17.5689 10.9393 17.5851 13.9724C17.6013 17.0679 15.1147 19.57 12.0082 19.5845ZM16.3065 13.0873C16.0246 11.32 14.1799 9.41406 11.5951 9.61338C9.72384 9.75781 7.72084 11.5459 7.70524 13.1046C7.99007 13.2479 8.27489 13.3663 8.53487 13.5258C9.19522 13.9314 9.82726 13.8984 10.4917 13.5125C10.8244 13.319 11.2057 13.1734 11.5836 13.0988C12.326 12.9521 13.0077 13.1647 13.6391 13.5726C14.1395 13.8955 14.6773 13.9042 15.2089 13.6627C15.5821 13.4929 15.9368 13.2837 16.3071 13.0879L16.3065 13.0873ZM16.3701 14.3387C16.217 14.4253 16.0778 14.5039 15.9385 14.5825C14.9893 15.1203 14.0199 15.1539 13.0903 14.5842C12.3398 14.1243 11.6633 14.1197 10.9111 14.5819C9.98325 15.1515 9.01323 15.1238 8.06344 14.5842C7.919 14.5022 7.77284 14.423 7.60645 14.3306C7.6804 16.3214 9.41649 18.4521 12.0192 18.4331C14.8911 18.4117 16.4094 15.9505 16.3701 14.3387Z" fill="white"/>
<path d="M15.2661 5.17465C15.0743 5.17465 14.8819 5.18274 14.6907 5.17292C14.3637 5.15616 14.1216 4.9112 14.1164 4.60558C14.1118 4.29765 14.3458 4.03709 14.6733 4.02438C15.0754 4.00878 15.4793 4.00878 15.882 4.02496C16.1957 4.03767 16.4216 4.28956 16.4262 4.58825C16.4308 4.89618 16.1939 5.15212 15.8704 5.17176C15.6699 5.18389 15.4677 5.17407 15.2661 5.17407V5.17465Z" fill="white"/>
<path d="M18.3726 4.02091C18.5644 4.02091 18.7567 4.01109 18.948 4.02323C19.279 4.04402 19.5061 4.28667 19.5049 4.5998C19.5032 4.91525 19.275 5.16078 18.9434 5.17176C18.5505 5.18447 18.1565 5.18505 17.7642 5.17176C17.436 5.16078 17.2015 4.906 17.2026 4.59518C17.2038 4.28609 17.4395 4.04114 17.7688 4.02265C17.9693 4.01109 18.1715 4.02034 18.3731 4.02091H18.3726Z" fill="white"/>
</g>
<defs>
<clipPath id="clip0_1608_2235">
<rect width="18.1131" height="20" fill="white" transform="translate(2.9447 2)"/>
</clipPath>
</defs>
</svg>
