<svg width="144" height="28" viewBox="0 0 144 28" fill="none" xmlns="http://www.w3.org/2000/svg">
<path d="M36.0911 6.26519C39.0393 6.26519 41.4244 8.35962 41.4244 10.927C41.4244 13.4944 39.0393 15.6093 36.0911 15.6093H32.265V21.4004C32.2679 21.4453 32.2611 21.4904 32.2452 21.5326C32.2293 21.5748 32.2046 21.6131 32.1728 21.645C32.141 21.677 32.1028 21.7018 32.0607 21.7178C32.0186 21.7339 31.9736 21.7408 31.9286 21.7382H29.6557C29.6107 21.7408 29.5656 21.7339 29.5234 21.7178C29.4813 21.7018 29.443 21.677 29.4111 21.6451C29.3792 21.6132 29.3544 21.5749 29.3384 21.5327C29.3223 21.4905 29.3154 21.4454 29.318 21.4004V6.603C29.3154 6.55795 29.3223 6.51286 29.3384 6.47068C29.3544 6.4285 29.3792 6.3902 29.4111 6.35829C29.443 6.32638 29.4813 6.30159 29.5234 6.28554C29.5656 6.2695 29.6107 6.26256 29.6557 6.26519H36.0911ZM35.7764 8.85548H32.265V13.2905H35.7764C37.1715 13.2905 38.2965 12.277 38.2965 11.0621C38.2965 9.8472 37.1715 8.85548 35.7764 8.85548Z" fill="#161925"/>
<path d="M56.6369 10.927C56.6369 13.0431 55.0175 14.8444 52.8121 15.4078L56.0292 21.217C56.21 21.5319 56.0967 21.7346 55.7374 21.7346H53.1268C53.0596 21.7384 52.993 21.7208 52.9365 21.6844C52.88 21.648 52.8364 21.5946 52.8121 21.5319L49.8409 15.6093H47.4776V21.4004C47.4802 21.4454 47.4733 21.4905 47.4572 21.5327C47.4412 21.5749 47.4164 21.6132 47.3845 21.6451C47.3526 21.677 47.3143 21.7018 47.2722 21.7178C47.23 21.7339 47.185 21.7408 47.1399 21.7382H44.867C44.822 21.7408 44.777 21.7339 44.7349 21.7178C44.6928 21.7018 44.6546 21.677 44.6228 21.645C44.591 21.6131 44.5663 21.5748 44.5504 21.5326C44.5345 21.4904 44.5277 21.4454 44.5306 21.4004V6.60301C44.5277 6.55802 44.5345 6.51295 44.5504 6.47077C44.5663 6.42859 44.591 6.39027 44.6228 6.35834C44.6546 6.32641 44.6928 6.3016 44.7349 6.28554C44.777 6.26948 44.822 6.26255 44.867 6.2652H51.3036C54.2518 6.2652 56.6369 8.35963 56.6369 10.927ZM53.509 11.0621C53.509 9.846 52.384 8.85549 50.9889 8.85549H47.4776V13.2905H50.9889C52.384 13.2905 53.509 12.277 53.509 11.0621Z" fill="#161925"/>
<path d="M58.8652 14.0783C58.8652 10.0258 61.2503 5.97324 66.0434 5.97324C70.769 5.97324 73.0648 9.95459 73.0648 13.989C73.0648 18.1091 70.6797 22.2751 66.0434 22.2751C61.2732 22.2751 58.8652 18.1767 58.8652 14.0783ZM69.9587 14.2363C69.9587 11.4217 68.6094 8.58524 66.0434 8.58524C63.2978 8.58524 62.0377 11.196 62.0377 13.8756C62.0377 16.7362 63.4774 19.6848 66.0434 19.6848C68.6769 19.6848 69.9587 16.9835 69.9587 14.2363Z" fill="#161925"/>
<path d="M73.8522 23.1751C73.8048 23.1844 73.7559 23.1824 73.7094 23.1691C73.663 23.1559 73.6203 23.1317 73.585 23.0988C73.5497 23.0658 73.5227 23.0249 73.5062 22.9794C73.4898 22.9339 73.4844 22.8852 73.4905 22.8373V20.9467C73.4876 20.854 73.5214 20.7639 73.5847 20.6961C73.6479 20.6283 73.7355 20.5882 73.8281 20.5848C75.5609 20.3592 76.2807 19.2794 76.2807 17.9305V6.603C76.2781 6.55795 76.285 6.51286 76.3011 6.47068C76.3171 6.4285 76.3419 6.3902 76.3738 6.35829C76.4057 6.32638 76.444 6.30159 76.4861 6.28554C76.5283 6.2695 76.5733 6.26256 76.6184 6.26519H78.8913C78.9363 6.26256 78.9814 6.2695 79.0236 6.28554C79.0657 6.30159 79.104 6.32638 79.1359 6.35829C79.1678 6.3902 79.1926 6.4285 79.2086 6.47068C79.2246 6.51286 79.2316 6.55795 79.2289 6.603V18.0186C79.2301 20.8116 77.6324 22.9507 73.8522 23.1751Z" fill="#161925"/>
<path d="M89.2444 5.97324C92.5073 5.97324 94.8032 6.8057 95.4784 9.62039C95.4885 9.6619 95.4899 9.70501 95.4827 9.74711C95.4755 9.7892 95.4598 9.82938 95.4366 9.86519C95.4133 9.90099 95.383 9.93167 95.3475 9.95534C95.312 9.97901 95.272 9.99518 95.23 10.0028L92.8895 10.5663C92.7099 10.6109 92.5531 10.4987 92.4627 10.325C91.9671 9.0799 90.707 8.51768 89.3119 8.51768C87.7142 8.49476 86.0719 9.25966 86.0719 10.7919C86.0719 12.6149 87.5562 12.6378 89.5374 12.8429C92.3505 13.1131 96.0861 13.6753 96.0186 17.6615C95.9957 20.6331 92.822 22.1194 89.6049 22.1194C86.4312 22.1423 84.2041 21.0167 83.0562 18.7872C83.0321 18.7437 83.0183 18.6954 83.0158 18.6458C83.0133 18.5962 83.0222 18.5467 83.0417 18.5011C83.0613 18.4554 83.091 18.4149 83.1286 18.3825C83.1662 18.3501 83.2107 18.3268 83.2587 18.3142L85.733 17.4335C85.8168 17.3987 85.9108 17.3982 85.9949 17.432C86.079 17.4659 86.1465 17.5314 86.1828 17.6145C86.7447 18.6267 87.9602 19.505 89.5133 19.5279C91.2014 19.5496 92.9112 18.8523 92.9112 17.524C92.9112 15.8578 91.3364 15.4078 89.4228 15.1822C86.5421 14.8444 82.9645 14.8444 82.9645 10.6568C82.9657 7.3462 85.9139 5.97324 89.2444 5.97324Z" fill="#00CCDF"/>
<path d="M102.614 21.3967C102.617 21.4418 102.61 21.4869 102.594 21.5291C102.578 21.5712 102.553 21.6095 102.521 21.6415C102.489 21.6734 102.451 21.6982 102.409 21.7142C102.367 21.7302 102.322 21.7372 102.277 21.7346H100C99.9552 21.7372 99.9102 21.7303 99.8681 21.7142C99.826 21.6982 99.7878 21.6733 99.756 21.6414C99.7242 21.6095 99.6995 21.5712 99.6836 21.529C99.6677 21.4868 99.661 21.4417 99.6638 21.3967V6.60301C99.661 6.55802 99.6677 6.51295 99.6836 6.47077C99.6995 6.42859 99.7242 6.39027 99.756 6.35834C99.7878 6.32641 99.826 6.3016 99.8681 6.28554C99.9102 6.26948 99.9552 6.26255 100 6.2652H102.273C102.318 6.26257 102.363 6.2695 102.405 6.28555C102.448 6.30159 102.486 6.32639 102.518 6.3583C102.55 6.39021 102.574 6.42851 102.59 6.47069C102.606 6.51286 102.613 6.55796 102.611 6.60301V11.3082H108.214V6.60301C108.212 6.55796 108.218 6.51286 108.235 6.47069C108.251 6.42851 108.275 6.39021 108.307 6.3583C108.339 6.32639 108.377 6.30159 108.42 6.28555C108.462 6.2695 108.507 6.26257 108.552 6.2652H110.825C110.87 6.26257 110.915 6.2695 110.957 6.28555C110.999 6.30159 111.037 6.32639 111.069 6.3583C111.101 6.39021 111.126 6.42851 111.142 6.47069C111.158 6.51286 111.165 6.55796 111.162 6.60301V21.3967C111.165 21.4418 111.158 21.4869 111.142 21.5291C111.126 21.5712 111.101 21.6095 111.069 21.6415C111.037 21.6734 110.999 21.6982 110.957 21.7142C110.915 21.7302 110.87 21.7372 110.825 21.7346H108.552C108.507 21.7372 108.462 21.7302 108.42 21.7142C108.377 21.6982 108.339 21.6734 108.307 21.6415C108.275 21.6095 108.251 21.5712 108.235 21.5291C108.218 21.4869 108.212 21.4418 108.214 21.3967V13.8985H102.614V21.3967Z" fill="#00CCDF"/>
<path d="M114.043 14.0783C114.043 10.0258 116.428 5.97324 121.221 5.97324C125.948 5.97324 128.243 9.95459 128.243 13.989C128.243 18.1091 125.858 22.2751 121.221 22.2751C116.451 22.2751 114.043 18.1767 114.043 14.0783ZM125.137 14.2363C125.137 11.4217 123.786 8.58524 121.22 8.58524C118.476 8.58524 117.214 11.196 117.214 13.8756C117.214 16.7362 118.655 19.6848 121.22 19.6848C123.855 19.6848 125.138 16.9835 125.138 14.2363H125.137Z" fill="#00CCDF"/>
<path d="M137.875 6.26519C140.823 6.26519 143.208 8.35962 143.208 10.927C143.208 13.4944 140.823 15.6093 137.875 15.6093H134.049V21.4004C134.051 21.4454 134.044 21.4905 134.028 21.5327C134.012 21.5749 133.987 21.6132 133.956 21.6451C133.924 21.677 133.885 21.7018 133.843 21.7178C133.801 21.7339 133.756 21.7408 133.711 21.7382H131.433C131.388 21.7408 131.343 21.7339 131.301 21.7178C131.259 21.7018 131.221 21.677 131.189 21.6451C131.157 21.6132 131.132 21.5749 131.116 21.5327C131.1 21.4905 131.093 21.4454 131.096 21.4004V6.603C131.093 6.55795 131.1 6.51286 131.116 6.47068C131.132 6.4285 131.157 6.3902 131.189 6.35829C131.221 6.32638 131.259 6.30159 131.301 6.28554C131.343 6.2695 131.388 6.26256 131.433 6.26519H137.87H137.875ZM137.559 8.85548H134.049V13.2905H137.559C138.955 13.2905 140.08 12.277 140.08 11.0621C140.08 9.8472 138.955 8.85548 137.559 8.85548Z" fill="#00CCDF"/>
<path d="M2.04142 7.29432L8.38518 0.852974C8.65119 0.582818 8.96824 0.368283 9.31787 0.221848C9.66751 0.0754126 10.0428 1.13641e-06 10.4218 0L10.6111 0C13.1698 0 14.4408 3.10304 12.6188 4.90068L6.08691 11.3408C4.27819 13.1228 1.21906 11.8415 1.21906 9.30188C1.21945 8.55069 1.51478 7.82971 2.04142 7.29432Z" fill="#00CCDF"/>
<path d="M0.858536 16.5286L14.4842 3.09699C15.0263 2.56301 15.7573 2.26503 16.518 2.26797C17.2787 2.2709 18.0074 2.57453 18.5454 3.11267L23.875 8.44527C24.1426 8.71303 24.3549 9.0309 24.4997 9.38074C24.6446 9.73059 24.7191 10.1055 24.7191 10.4842C24.7191 13.0431 21.6358 14.3341 19.8151 12.5352L18.5429 11.2841C18.0037 10.7525 17.2772 10.4545 16.5202 10.4545C15.7632 10.4545 15.0366 10.7525 14.4974 11.2841L4.90403 20.7416C3.08325 22.5368 0 21.2459 0 18.6882V18.5796C0.000434436 18.1979 0.0765395 17.8201 0.223909 17.4681C0.371278 17.116 0.586984 16.7967 0.858536 16.5286Z" fill="#161925"/>
<path d="M11.4455 19.505L11.3418 19.6075C11.072 19.8728 10.8571 20.1886 10.7094 20.537C10.5616 20.8855 10.484 21.2596 10.4809 21.638L10.4507 25.0873C10.429 27.6547 13.5219 28.9673 15.3524 27.1673L15.4054 27.1142C15.9397 26.588 16.2484 25.8746 16.2664 25.1247L16.3459 21.626C16.4062 19.0381 13.2904 17.6893 11.4455 19.505Z" fill="#00CCDF"/>
</svg>
