<svg width="24" height="24" viewBox="0 0 24 24" fill="none" xmlns="http://www.w3.org/2000/svg">
<g clip-path="url(#clip0_1608_2248)">
<path d="M10.5526 7.63436C11.2339 7.63436 11.8813 7.63436 12.5297 7.63436C14.4912 7.63436 16.4526 7.63087 18.4141 7.63523C20.547 7.64045 21.9969 9.10407 22.0012 11.2482C22.003 12.0789 21.5785 12.5444 20.7279 12.6448C20.7279 13.1069 20.7305 13.5794 20.7279 14.0519C20.7227 14.6697 20.5427 14.8516 19.922 14.8533C18.9846 14.8568 18.0471 14.8576 17.1096 14.8533C16.5219 14.8498 16.3263 14.6549 16.3193 14.0727C16.3133 13.5994 16.3185 13.1251 16.3185 12.6039C15.69 12.6039 15.117 12.6039 14.544 12.6039C13.6351 12.6039 12.727 12.6013 11.8182 12.6048C11.1863 12.6065 10.9422 12.8545 10.9629 13.4715C11.0088 14.8629 11.0616 16.2534 11.0997 17.6448C11.1066 17.8893 11.1767 18.0242 11.4113 18.1391C12.1808 18.5176 12.5652 19.158 12.566 20.0238C12.566 20.4302 12.5721 20.8357 12.5643 21.2421C12.5565 21.7041 12.3592 21.9286 11.916 21.9295C8.82919 21.9356 5.74328 21.9356 2.6565 21.9295C2.21417 21.9295 2.01422 21.7033 2.00642 21.2447C1.9995 20.8392 2.00383 20.4328 2.00469 20.0265C2.00816 19.1833 2.36219 18.5385 3.11787 18.1608C3.37756 18.0312 3.45979 17.8797 3.46671 17.5987C3.56193 13.7003 3.67273 9.80195 3.77055 5.90359C3.81815 4.0188 4.83438 2.5717 6.46347 2.13575C6.76643 2.05482 7.08844 2.00783 7.40179 2.00696C10.3007 1.99913 13.1997 1.99652 16.0986 2.00522C17.6212 2.00957 18.8374 3.08423 18.9872 4.52698C19.0581 5.21267 18.8634 5.43891 18.1839 5.43979C15.9047 5.4424 13.6264 5.43979 11.3473 5.44153C10.75 5.44153 10.5448 5.63296 10.5189 6.23599C10.5024 6.6267 10.5128 7.01914 10.5145 7.40985C10.5145 7.46554 10.5327 7.52036 10.5526 7.63523V7.63436ZM20.7721 11.4335C20.7946 11.3187 20.8119 11.263 20.8145 11.2073C20.8803 9.86373 19.8675 8.80473 18.4704 8.80212C14.0705 8.79255 9.67057 8.79864 5.27065 8.79951C5.17111 8.79951 5.07243 8.81518 4.91402 8.8291C4.8214 11.8556 4.72964 14.8733 4.63789 17.8963H9.92246C9.87399 16.4135 9.80214 14.9647 9.79521 13.5158C9.79348 13.1025 9.90169 12.6448 10.0973 12.2828C10.4548 11.6215 11.1014 11.4292 11.8294 11.4309C14.6132 11.4387 17.3979 11.4344 20.1826 11.4344C20.3687 11.4344 20.5548 11.4344 20.7738 11.4344L20.7721 11.4335ZM17.6636 4.25461C17.4135 3.54455 16.8768 3.19213 16.0631 3.19126C13.2092 3.18691 10.3553 3.18778 7.50134 3.19126C6.36825 3.19213 5.50697 3.78646 5.1209 4.85764C4.79803 5.75392 4.99625 6.68065 4.93566 7.6039H9.35375C9.35375 7.11225 9.34596 6.65193 9.35548 6.19161C9.37885 4.96902 10.1016 4.25635 11.3109 4.25548C13.4152 4.25548 15.5187 4.25548 17.6628 4.25548L17.6636 4.25461ZM11.3689 20.7426C11.3689 20.4415 11.3828 20.1683 11.3654 19.8977C11.3369 19.4443 11.0443 19.1363 10.5838 19.1345C8.3808 19.1232 6.17782 19.1241 3.9757 19.1345C3.55154 19.1363 3.24771 19.4156 3.20617 19.8159C3.175 20.1126 3.20011 20.4154 3.20011 20.7435H11.3689V20.7426ZM17.5329 13.6411H19.5178V12.6326H17.5329V13.6411Z" fill="white"/>
<path d="M20.6604 19.8376C20.6041 20.7661 20.1999 21.43 19.3879 21.7938C18.5569 22.1662 17.7606 22.0313 17.0984 21.4213C16.4518 20.8261 16.1678 20.0421 16.5574 19.2189C16.9815 18.3235 17.5225 17.4812 18.054 16.6424C18.2843 16.2786 18.75 16.256 18.9664 16.6023C19.5316 17.5038 20.0458 18.4384 20.5634 19.3695C20.6431 19.513 20.6344 19.7054 20.6595 19.8376H20.6604ZM18.6141 18.0581C18.5587 18.0573 18.5024 18.0555 18.447 18.0546C18.1813 18.562 17.8921 19.0588 17.6567 19.5792C17.4732 19.9847 17.6221 20.3458 17.9614 20.6147C18.2825 20.8696 18.7699 20.874 19.085 20.619C19.4165 20.3502 19.5801 19.9943 19.3949 19.5844C19.1594 19.064 18.8763 18.5654 18.6141 18.0581Z" fill="white"/>
</g>
<defs>
<clipPath id="clip0_1608_2248">
<rect width="20" height="20" fill="white" transform="translate(2.00122 2)"/>
</clipPath>
</defs>
</svg>
