<svg width="24" height="24" viewBox="0 0 24 24" fill="none" xmlns="http://www.w3.org/2000/svg">
<path d="M3.957 21.9912C2.78541 21.9789 2.01523 21.2232 2.00817 20.0667C1.99847 18.4999 1.99935 10.5046 2.00817 8.93771C2.01435 7.77421 2.7757 7.0088 3.94376 7.00001C5.54587 6.98771 18.4705 6.98771 20.0726 7.00001C21.2248 7.00968 21.9835 7.76103 21.9923 8.90168C22.0046 10.4826 22.0038 18.4937 21.9923 20.0746C21.9843 21.2372 21.2212 21.9789 20.0417 21.9912C18.4552 22.007 5.5435 22.0088 3.957 21.9912ZM4.08315 8.43593C3.60675 8.43944 3.45854 8.56862 3.45589 9.02295C3.44795 10.53 3.45413 18.4673 3.45237 19.9744C3.45237 20.3708 3.63411 20.5641 4.04346 20.5623C5.57146 20.5562 18.4219 20.5623 19.95 20.5579C20.4043 20.5562 20.5543 20.4042 20.5552 19.9472C20.5596 18.4542 20.5596 10.5318 20.5551 9.03964C20.5534 8.58356 20.4061 8.43944 19.9447 8.43593C18.4321 8.42375 5.59574 8.42705 4.08315 8.43593Z" fill="#444750"/>
<mask id="mask0_1358_3323" style="mask-type:alpha" maskUnits="userSpaceOnUse" x="2" y="2" width="20" height="9">
<path d="M7.32544 10.5716C6.51733 10.5716 5.70833 10.5821 4.90022 10.568C3.75598 10.5496 3.00257 9.7956 2.99551 8.65056C2.98404 7.06876 2.98316 5.48785 2.99551 3.90606C3.00521 2.76805 3.7701 2.01494 4.91786 2.00791C6.51998 1.99736 8.12209 1.99736 9.7242 2.00791C10.8878 2.01494 11.6518 2.78299 11.658 3.94648C11.6668 5.51334 11.6677 7.08019 11.658 8.64616C11.651 9.78505 10.8896 10.5417 9.75066 10.5707C9.72155 10.5707 9.69155 10.5707 9.66244 10.5707C8.88344 10.5707 8.10444 10.5707 7.32544 10.5707V10.5716ZM7.28574 9.13388C8.06474 9.13388 8.84374 9.12773 9.62186 9.13652C10.0294 9.14091 10.2147 8.94934 10.2138 8.55125C10.2121 7.04328 10.2174 5.53618 10.2103 4.02821C10.2077 3.57652 10.055 3.43943 9.58392 3.43855C8.07003 3.43504 6.55703 3.43416 5.04314 3.43855C4.58703 3.44031 4.43353 3.59146 4.43176 4.04403C4.42735 5.53706 4.42735 7.0301 4.43176 8.52313C4.43353 8.98185 4.57997 9.12861 5.03696 9.13212C5.78597 9.13828 6.53586 9.13388 7.28486 9.13388H7.28574Z" fill="#444750"/>
<path d="M16.7535 2.00382C17.5475 2.00382 18.3415 1.99415 19.1346 2.00558C20.2842 2.02315 21.0393 2.77099 21.0473 3.91427C21.0596 5.49519 21.0596 7.07698 21.0473 8.65789C21.0385 9.80117 20.2789 10.5578 19.1338 10.5657C17.5166 10.5771 15.8995 10.578 14.2833 10.5657C13.1708 10.5569 12.3954 9.78623 12.3857 8.68074C12.3724 7.08489 12.3724 5.48903 12.3857 3.89318C12.3945 2.78856 13.1673 2.02579 14.2833 2.00733C15.1064 1.99327 15.9295 2.0047 16.7526 2.0047L16.7535 2.00382ZM16.7138 9.13946C17.4778 9.13946 18.2418 9.14385 19.0067 9.1377C19.4593 9.13419 19.6093 8.98304 19.611 8.52607C19.6154 7.03304 19.6154 5.54 19.611 4.04697C19.6093 3.59088 19.4619 3.44413 19.0005 3.44325C17.4867 3.43886 15.9736 3.44061 14.4598 3.44501C13.971 3.44676 13.8334 3.58297 13.8316 4.07684C13.8263 5.55494 13.8263 7.03392 13.8316 8.51201C13.8334 9.00237 13.9745 9.13506 14.4659 9.13858C15.2158 9.14297 15.9648 9.13946 16.7147 9.13946H16.7138Z" fill="#444750"/>
</mask>
<g mask="url(#mask0_1358_3323)">
<rect x="1.98254" y="2" width="20.0784" height="4" fill="#444750"/>
</g>
</svg>
