<svg width="24" height="24" viewBox="0 0 24 24" fill="none" xmlns="http://www.w3.org/2000/svg">
<path d="M19.9315 10.0955L19.9315 10.0955C20.0912 10.1912 20.2644 10.2702 20.4487 10.3495C20.4876 10.3662 20.5271 10.3829 20.5672 10.3999C20.7134 10.462 20.8659 10.5268 21.0127 10.5991C21.3992 10.7887 21.6983 11.0458 21.8998 11.372C22.1013 11.6981 22.1977 12.0809 22.1987 12.5102C22.1989 12.6031 22.1993 12.6963 22.1996 12.7896C22.2008 13.0712 22.2019 13.3545 22.1987 13.6373L22.1987 13.6374C22.1913 14.25 22.0068 14.769 21.6501 15.1422C21.2931 15.5158 20.7837 15.7223 20.1676 15.7478L20.1674 15.7478C20.0327 15.7532 19.9635 15.7749 19.9175 15.8049C19.8722 15.8343 19.824 15.8881 19.7668 16.0113L19.7668 16.0115C19.5484 16.4804 19.2424 16.8467 18.8526 17.0928C18.4627 17.3389 18.0007 17.4575 17.4825 17.4496L17.4825 17.4496C16.4463 17.4336 15.6924 16.8996 15.2687 15.973L15.2687 15.9729C15.2182 15.8623 15.1778 15.8172 15.1434 15.7943C15.1104 15.7724 15.0569 15.7536 14.9416 15.754L19.9315 10.0955ZM19.9315 10.0955C19.674 9.94115 19.4301 9.74683 19.2712 9.52483C18.9832 9.12209 18.7258 8.70118 18.464 8.27314C18.365 8.11125 18.2654 7.94833 18.1632 7.785C17.6421 6.9516 16.8826 6.53908 15.8968 6.55022L19.9315 10.0955ZM8.50526 15.952L8.50509 15.9523C8.29436 16.4365 7.99157 16.8158 7.60019 17.072C7.20867 17.3284 6.74079 17.4534 6.21315 17.4488H6.21311C5.69352 17.4441 5.23716 17.3101 4.85576 17.051C4.47495 16.7923 4.18016 16.4167 3.97044 15.9462M8.50526 15.952L1.80388 12.7263C1.80127 13.0299 1.8004 13.3343 1.80388 13.639L1.80389 13.6392C1.81126 14.2261 1.97464 14.7214 2.30341 15.0883C2.63241 15.4554 3.10714 15.6716 3.69437 15.738L3.69476 15.738C3.7914 15.7488 3.83728 15.7694 3.86609 15.7913C3.89603 15.814 3.92941 15.8545 3.97044 15.9462M8.50526 15.952C8.55205 15.8438 8.5932 15.8067 8.62501 15.789C8.6622 15.7682 8.72076 15.7544 8.84038 15.7548M8.50526 15.952L8.84038 15.7548M3.97044 15.9462C3.97043 15.9462 3.97043 15.9462 3.97042 15.9462L4.15308 15.8647L3.97052 15.9464C3.97049 15.9463 3.97047 15.9462 3.97044 15.9462ZM3.34753 10.6506L3.34758 10.6506C3.72399 10.541 4.09345 10.4421 4.46041 10.3439C4.93586 10.2167 5.40714 10.0905 5.884 9.94354L3.34753 10.6506ZM3.34753 10.6506C2.8492 10.7959 2.46004 11.0432 2.19613 11.4006M3.34753 10.6506L2.19613 11.4006M6.43975 9.578L6.43987 9.57786C6.84408 9.08886 7.22542 8.58225 7.60975 8.07166C7.72823 7.91425 7.847 7.75646 7.96681 7.59869L7.9669 7.59859C8.48975 6.91106 9.18582 6.55007 10.0585 6.55194L10.0586 6.55194C10.712 6.55367 11.3652 6.55309 12.0188 6.55252C12.3458 6.55223 12.6729 6.55194 13.0001 6.55194H13.2001V6.55291C13.4242 6.55313 13.6479 6.55367 13.8716 6.55421C14.5474 6.55584 15.2219 6.55748 15.8967 6.55022L6.43975 9.578ZM6.43975 9.578C6.30714 9.73872 6.09028 9.87969 5.88419 9.94349L6.43975 9.578ZM19.9766 14.5083C20.3241 14.5449 20.553 14.4833 20.6978 14.3655C20.8568 14.2362 20.9638 13.9987 20.9695 13.5943C20.9711 13.4722 20.9698 13.343 20.9686 13.2112C20.9667 13.0062 20.9647 12.7948 20.9731 12.5935C20.9831 12.3453 20.9336 12.1551 20.8382 12.0067C20.7425 11.858 20.5892 11.7332 20.3601 11.6362L20.36 11.6362C20.2998 11.6107 20.2391 11.5852 20.178 11.5595C19.814 11.4068 19.437 11.2486 19.0833 11.0499L19.1812 10.8755L19.0833 11.0499C18.823 10.9038 18.5649 10.687 18.3919 10.4316C18.3918 10.4315 18.3917 10.4313 18.3915 10.4311L18.5571 10.319L19.9766 14.5083ZM19.9766 14.5083C19.7521 13.879 19.4607 13.3941 19.0782 13.0597C18.6676 12.7008 18.1686 12.5297 17.5792 12.5218C17.5792 12.5218 17.5791 12.5218 17.5791 12.5218L17.5765 12.7218L19.9766 14.5083ZM15.8712 7.75866L15.871 7.75866C13.9811 7.76472 12.0911 7.76472 10.2021 7.75866L15.8712 7.75866ZM15.8712 7.75866C16.1685 7.75747 16.4163 7.81686 16.6248 7.93261M15.8712 7.75866L16.6248 7.93261M8.88022 8.41103L8.88013 8.41115C8.36804 9.1075 7.84961 9.80901 7.29116 10.4783L7.29115 10.4783C7.07926 10.7322 6.76057 10.9481 6.44391 11.0481L6.44359 11.0482C5.7995 11.2504 5.1444 11.425 4.49446 11.5983C4.22452 11.6703 3.95548 11.742 3.68847 11.8154L3.68834 11.8154C3.49644 11.868 3.34293 11.9455 3.23614 12.0477C3.13338 12.146 3.06537 12.2749 3.05248 12.454L3.05247 12.4541C3.01661 12.9477 3.00867 13.4444 3.06545 13.9238L8.88022 8.41103ZM8.88022 8.41103C9.2131 7.95767 9.63941 7.75711 10.202 7.75866L8.88022 8.41103ZM16.2816 14.9834V14.9836C16.2816 15.6559 16.8288 16.2155 17.5047 16.2335L16.2816 14.9834ZM16.2816 14.9834C16.2809 14.2894 16.8423 13.731 17.5362 13.7355M16.2816 14.9834L17.5362 13.7355M8.84038 15.7548C10.8739 15.7635 12.9076 15.7644 14.9414 15.754L8.84038 15.7548ZM2.19613 11.4006C1.93267 11.7574 1.80804 12.205 1.80388 12.7262L2.19613 11.4006ZM16.6248 7.93261C16.8332 8.04825 17.0138 8.22654 17.1672 8.48078L16.6248 7.93261ZM17.5362 13.7355C18.2294 13.7408 18.7828 14.3036 18.7761 14.9989M17.5362 13.7355L18.7761 14.9989M18.7761 14.9989C18.7694 15.6812 18.1804 16.2513 17.5047 16.2335L18.7761 14.9989ZM3.71685 15.5393C2.61497 15.4146 2.01772 14.7395 2.00387 13.6367L3.71685 15.5393ZM15.089 14.5126H8.68903C8.45281 13.8677 8.15139 13.3749 7.75908 13.0396C7.33476 12.6769 6.82165 12.5135 6.21677 12.521L6.21674 12.521C5.61794 12.5284 5.10366 12.7092 4.68766 13.0706C4.30064 13.4068 4.01174 13.888 3.81184 14.4979C3.61798 14.5124 3.45571 14.4715 3.33553 14.3939C3.19533 14.3034 3.09244 14.1504 3.06546 13.9239L15.089 14.5126ZM6.22859 16.2343H6.22855C5.54697 16.2261 4.98179 15.6427 4.99445 14.9596L4.99445 14.9595C5.00714 14.2653 5.58083 13.7169 6.27248 13.7362L6.27252 13.7362C6.94292 13.7549 7.49837 14.3245 7.49763 14.9859C7.49689 15.6531 6.89856 16.2425 6.22859 16.2343Z" fill="#444750" stroke="#444750" stroke-width="0.4"/>
</svg>
