<svg width="24" height="24" viewBox="0 0 24 24" fill="none" xmlns="http://www.w3.org/2000/svg">
<path fill-rule="evenodd" clip-rule="evenodd" d="M4.97264 5.87614C4.97245 5.94245 4.9537 6.00738 4.9185 6.06358C4.88331 6.11978 4.83308 6.165 4.7735 6.19413C4.71393 6.22325 4.64739 6.23511 4.58142 6.22836C4.51545 6.22161 4.45269 6.19652 4.40025 6.15594L2.13769 4.39616C2.09518 4.36295 2.0608 4.3205 2.03716 4.27202C2.01351 4.22353 2.00122 4.1703 2.00122 4.11636C2.00122 4.06242 2.01351 4.00919 2.03716 3.96071C2.0608 3.91223 2.09518 3.86977 2.13769 3.83656L4.40025 2.07537C4.45288 2.03464 4.51591 2.00952 4.58213 2.00287C4.64835 1.99623 4.7151 2.00833 4.77478 2.0378C4.83445 2.06727 4.88464 2.11291 4.91963 2.16953C4.95461 2.22615 4.97298 2.29146 4.97264 2.35801V3.40904H13.4945V2.35517C13.4945 2.28861 13.5132 2.22339 13.5485 2.16694C13.5837 2.11049 13.6342 2.06509 13.694 2.03592C13.7538 2.00675 13.8206 1.99498 13.8868 2.00195C13.953 2.00893 14.0159 2.03437 14.0683 2.07537L16.3295 3.83514C16.372 3.86835 16.4064 3.91081 16.43 3.95929C16.4537 4.00777 16.466 4.061 16.466 4.11494C16.466 4.16888 16.4537 4.22211 16.43 4.2706C16.4064 4.31908 16.372 4.36153 16.3295 4.39474L14.0683 6.15594C14.0158 6.19701 13.9528 6.22247 13.8865 6.22939C13.8202 6.23631 13.7532 6.22442 13.6933 6.19507C13.6335 6.16573 13.5831 6.12012 13.5479 6.06346C13.5128 6.0068 13.4943 5.94139 13.4945 5.87471V4.82652H4.97264V5.87614ZM14.2047 9.08747H4.26248C4.07413 9.08747 3.8935 9.16229 3.76032 9.29547C3.62714 9.42865 3.55232 9.60928 3.55232 9.79763V19.7398C3.55232 19.9282 3.62714 20.1088 3.76032 20.242C3.8935 20.3752 4.07413 20.45 4.26248 20.45H14.2047C14.393 20.45 14.5737 20.3752 14.7069 20.242C14.84 20.1088 14.9149 19.9282 14.9149 19.7398V9.79763C14.9149 9.60928 14.84 9.42865 14.7069 9.29547C14.5737 9.16229 14.393 9.08747 14.2047 9.08747ZM4.26248 7.66715C3.69744 7.66715 3.15555 7.89161 2.75601 8.29116C2.35647 8.6907 2.13201 9.23259 2.13201 9.79763V19.7398C2.13201 20.3049 2.35647 20.8468 2.75601 21.2463C3.15555 21.6459 3.69744 21.8703 4.26248 21.8703H14.2047C14.7697 21.8703 15.3116 21.6459 15.7112 21.2463C16.1107 20.8468 16.3352 20.3049 16.3352 19.7398V9.79763C16.3352 9.23259 16.1107 8.6907 15.7112 8.29116C15.3116 7.89161 14.7697 7.66715 14.2047 7.66715H4.26248ZM21.6457 10.5078H20.5961V19.0297H21.6457C21.712 19.0299 21.777 19.0486 21.8332 19.0838C21.8894 19.119 21.9346 19.1693 21.9637 19.2288C21.9928 19.2884 22.0047 19.3549 21.998 19.4209C21.9912 19.4869 21.9661 19.5496 21.9255 19.6021L20.1658 21.8646C20.1326 21.9071 20.0901 21.9415 20.0416 21.9652C19.9931 21.9888 19.9399 22.0011 19.886 22.0011C19.832 22.0011 19.7788 21.9888 19.7303 21.9652C19.6818 21.9415 19.6394 21.9071 19.6062 21.8646L17.845 19.6021C17.8043 19.5495 17.7792 19.4866 17.7725 19.4206C17.7658 19.3545 17.7778 19.2878 17.8071 19.2282C17.8364 19.1686 17.8818 19.1184 17.9382 19.0833C17.9946 19.0482 18.0598 19.0296 18.1262 19.0297H19.1758V10.5078H18.1262C18.0599 10.5076 17.9949 10.4888 17.9387 10.4536C17.8825 10.4185 17.8373 10.3682 17.8082 10.3087C17.7791 10.2491 17.7672 10.1825 17.774 10.1166C17.7807 10.0506 17.8058 9.98784 17.8464 9.9354L19.6062 7.67284C19.6394 7.63033 19.6818 7.59595 19.7303 7.5723C19.7788 7.54866 19.832 7.53637 19.886 7.53637C19.9399 7.53637 19.9931 7.54866 20.0416 7.5723C20.0901 7.59595 20.1326 7.63033 20.1658 7.67284L21.927 9.9354C21.9676 9.98794 21.9927 10.0508 21.9994 10.1169C22.0061 10.183 21.9941 10.2497 21.9648 10.3093C21.9355 10.3689 21.8901 10.4191 21.8337 10.4542C21.7773 10.4893 21.7122 10.5079 21.6457 10.5078Z" fill="#444750"/>
</svg>
