<svg width="24" height="24" viewBox="0 0 24 24" fill="none" xmlns="http://www.w3.org/2000/svg">
<g clip-path="url(#clip0_1363_4214)">
<path d="M7.29662 4.26493C8.78175 4.26493 10.2678 4.25888 11.7529 4.27099C12.0203 4.27272 12.1484 4.20695 12.2471 3.93433C12.685 2.72008 13.7608 1.99136 15.0365 2.00002C16.249 2.00867 17.2988 2.75556 17.722 3.95337C17.8146 4.2156 17.9427 4.27099 18.1885 4.2684C19.1838 4.25888 20.1782 4.26234 21.1735 4.26493C21.6884 4.26666 21.9905 4.49774 22.0017 4.88634C22.013 5.29137 21.7057 5.53024 21.1596 5.53111C20.179 5.5337 19.1985 5.53976 18.2179 5.52678C17.9531 5.52332 17.8163 5.58477 17.7185 5.86171C17.2996 7.04826 16.2438 7.79516 15.0261 7.80814C13.7919 7.82112 12.685 7.07942 12.2601 5.8972C12.1475 5.5839 11.9926 5.52505 11.7001 5.52591C8.80166 5.53457 5.90322 5.53111 3.00478 5.53111C2.87496 5.53111 2.74428 5.5389 2.61532 5.52505C2.25096 5.48697 2.032 5.28358 2.00517 4.9149C1.98094 4.57823 2.25096 4.30301 2.62571 4.2684C2.79707 4.25282 2.9719 4.2632 3.14499 4.2632C4.52973 4.2632 5.91361 4.2632 7.29835 4.2632L7.29662 4.26493ZM16.641 4.93048C16.6523 4.00097 15.9097 3.24369 14.9854 3.24282C14.0767 3.24282 13.3419 3.97673 13.3376 4.89153C13.3324 5.81411 14.0481 6.54283 14.9681 6.55235C15.8855 6.56187 16.6306 5.84008 16.641 4.93048Z" fill="#444750"/>
<path d="M11.8914 12.6357C11.8317 12.7897 11.7815 12.9239 11.7287 13.0563C11.2691 14.1996 10.1847 14.924 8.95919 14.9075C7.76744 14.8911 6.69686 14.1381 6.29356 12.9827C6.19143 12.6902 6.0469 12.6253 5.76562 12.6296C4.79977 12.6452 3.83304 12.6365 2.86632 12.6348C2.31329 12.6339 2.00692 12.4107 1.99999 12.0091C1.99307 11.604 2.30031 11.366 2.84555 11.3652C3.82612 11.3626 4.80756 11.3565 5.78813 11.3695C6.05382 11.373 6.18797 11.3124 6.2849 11.0346C6.69773 9.85321 7.76485 9.10198 8.98082 9.0916C10.2167 9.08121 11.3228 9.82292 11.7425 11.006C11.8568 11.3271 12.0195 11.3695 12.3068 11.3686C15.1767 11.3608 18.0474 11.3643 20.9173 11.3643C21.0324 11.3643 21.1484 11.3617 21.2635 11.3652C21.7101 11.3799 21.9931 11.6213 22.0009 11.9883C22.0086 12.3682 21.7118 12.6218 21.2427 12.6339C21.1276 12.6374 21.0116 12.6339 20.8965 12.6339C18.0699 12.6339 15.2425 12.6339 12.4158 12.6339H11.8914V12.6357ZM7.36067 11.971C7.34942 12.8893 8.05997 13.6292 8.97476 13.6535C9.906 13.6777 10.6607 12.9429 10.6641 12.0073C10.6676 11.0856 9.95101 10.356 9.03188 10.3474C8.11622 10.3387 7.37192 11.0623 7.36067 11.9719V11.971Z" fill="#444750"/>
<path d="M12.1069 19.7351H10.3751C7.90939 19.7351 5.44282 19.7351 2.97712 19.7351C2.8473 19.7351 2.71488 19.7463 2.58852 19.7256C2.23109 19.6684 2.00087 19.459 2.00607 19.0894C2.01213 18.7216 2.23888 18.513 2.60583 18.4741C2.73392 18.4603 2.86547 18.468 2.99529 18.468C5.87988 18.468 8.76361 18.4637 11.6473 18.4741C11.971 18.475 12.1476 18.4178 12.2748 18.0699C12.6963 16.9093 13.798 16.1815 15.0174 16.191C16.2343 16.2014 17.2979 16.95 17.7151 18.1314C17.8112 18.4031 17.941 18.4767 18.2101 18.4732C19.2046 18.4594 20.1998 18.4654 21.1951 18.4689C21.7066 18.4706 22.0069 18.713 22.0017 19.1059C21.9965 19.4945 21.6928 19.7325 21.1804 19.7342C20.1851 19.7377 19.1907 19.7403 18.1954 19.7316C17.9557 19.7299 17.819 19.7723 17.7246 20.0397C17.2893 21.273 16.2334 22.0043 14.9577 22C13.7244 21.9957 12.6729 21.2393 12.2255 20.0354C12.1908 19.9419 12.1528 19.8493 12.1069 19.7351ZM16.6402 19.1145C16.648 18.1989 15.9305 17.465 15.0114 17.4477C14.094 17.4304 13.3514 18.147 13.3367 19.0643C13.3211 20.0016 14.0568 20.7581 14.9828 20.7572C15.8916 20.7572 16.6324 20.0224 16.6402 19.1145Z" fill="#444750"/>
</g>
<defs>
<clipPath id="clip0_1363_4214">
<rect width="20.0009" height="20" fill="white" transform="translate(2 2)"/>
</clipPath>
</defs>
</svg>
