<svg width="24" height="48" viewBox="0 0 24 48" fill="none" xmlns="http://www.w3.org/2000/svg">
<g clip-path="url(#clip0_1397_5434)">
<path fill-rule="evenodd" clip-rule="evenodd" d="M12.0012 2.80001C6.92015 2.80001 2.80117 6.91899 2.80117 12C2.80117 17.081 6.92015 21.2 12.0012 21.2C17.0822 21.2 21.2012 17.081 21.2012 12C21.2012 6.91899 17.0822 2.80001 12.0012 2.80001ZM1.20117 12C1.20117 6.03534 6.0365 1.20001 12.0012 1.20001C17.9658 1.20001 22.8012 6.03534 22.8012 12C22.8012 17.9647 17.9658 22.8 12.0012 22.8C6.0365 22.8 1.20117 17.9647 1.20117 12Z" fill="#444750"/>
<path fill-rule="evenodd" clip-rule="evenodd" d="M12.0012 11.2C12.443 11.2 12.8012 11.5582 12.8012 12V16C12.8012 16.4418 12.443 16.8 12.0012 16.8C11.5593 16.8 11.2012 16.4418 11.2012 16V12C11.2012 11.5582 11.5593 11.2 12.0012 11.2Z" fill="#444750"/>
<path fill-rule="evenodd" clip-rule="evenodd" d="M11.2012 8.00001C11.2012 7.55818 11.5593 7.20001 12.0012 7.20001H12.0112C12.453 7.20001 12.8112 7.55818 12.8112 8.00001C12.8112 8.44184 12.453 8.80001 12.0112 8.80001H12.0012C11.5593 8.80001 11.2012 8.44184 11.2012 8.00001Z" fill="#444750"/>
<g clip-path="url(#clip1_1397_5434)">
<path fill-rule="evenodd" clip-rule="evenodd" d="M12.0013 33.8667C8.61392 33.8667 5.86794 36.6126 5.86794 40C5.86794 43.3873 8.61392 46.1333 12.0013 46.1333C15.3886 46.1333 18.1346 43.3873 18.1346 40C18.1346 36.6126 15.3886 33.8667 12.0013 33.8667ZM4.80127 40C4.80127 36.0235 8.02482 32.8 12.0013 32.8C15.9777 32.8 19.2013 36.0235 19.2013 40C19.2013 43.9764 15.9777 47.2 12.0013 47.2C8.02482 47.2 4.80127 43.9764 4.80127 40Z" fill="#444750" stroke="#444750" stroke-width="0.5" stroke-linecap="round" stroke-linejoin="round"/>
<path fill-rule="evenodd" clip-rule="evenodd" d="M12.0012 39.4667C12.2958 39.4667 12.5346 39.7055 12.5346 40V42.6667C12.5346 42.9612 12.2958 43.2 12.0012 43.2C11.7067 43.2 11.4679 42.9612 11.4679 42.6667V40C11.4679 39.7055 11.7067 39.4667 12.0012 39.4667Z" fill="#444750" stroke="#444750" stroke-width="0.5" stroke-linecap="round" stroke-linejoin="round"/>
<path fill-rule="evenodd" clip-rule="evenodd" d="M11.4679 37.3333C11.4679 37.0388 11.7067 36.8 12.0012 36.8H12.0079C12.3024 36.8 12.5412 37.0388 12.5412 37.3333C12.5412 37.6279 12.3024 37.8667 12.0079 37.8667H12.0012C11.7067 37.8667 11.4679 37.6279 11.4679 37.3333Z" fill="#444750" stroke="#444750" stroke-width="0.5" stroke-linecap="round" stroke-linejoin="round"/>
</g>
</g>
<defs>
<clipPath id="clip0_1397_5434">
<rect x="0.0012207" width="24" height="48" rx="5" fill="white"/>
</clipPath>
<clipPath id="clip1_1397_5434">
<rect width="16" height="16" fill="white" transform="translate(4.00122 32)"/>
</clipPath>
</defs>
</svg>
