<svg width="24" height="24" viewBox="0 0 24 24" fill="none" xmlns="http://www.w3.org/2000/svg">
<path d="M2 5C2 4.73478 2.11288 4.48043 2.31381 4.29289C2.51475 4.10536 2.78727 4 3.07143 4H20.9286C21.2127 4 21.4853 4.10536 21.6862 4.29289C21.8871 4.48043 22 4.73478 22 5C22 5.26522 21.8871 5.51957 21.6862 5.70711C21.4853 5.89464 21.2127 6 20.9286 6H12H3.07143C2.78727 6 2.51475 5.89464 2.31381 5.70711C2.11288 5.51957 2 5.26522 2 5Z" fill="white"/>
<path d="M2 12C2 11.7348 2.11288 11.4804 2.31381 11.2929C2.51475 11.1054 2.78727 11 3.07143 11H20.9286C21.2127 11 21.4853 11.1054 21.6862 11.2929C21.8871 11.4804 22 11.7348 22 12C22 12.2652 21.8871 12.5196 21.6862 12.7071C21.4853 12.8946 21.2127 13 20.9286 13H12H3.07143C2.78727 13 2.51475 12.8946 2.31381 12.7071C2.11288 12.5196 2 12.2652 2 12Z" fill="white"/>
<path d="M2 19C2 18.7348 2.11288 18.4804 2.31381 18.2929C2.51475 18.1054 2.78727 18 3.07143 18H20.9286C21.2127 18 21.4853 18.1054 21.6862 18.2929C21.8871 18.4804 22 18.7348 22 19C22 19.2652 21.8871 19.5196 21.6862 19.7071C21.4853 19.8946 21.2127 20 20.9286 20H12H3.07143C2.78727 20 2.51475 19.8946 2.31381 19.7071C2.11288 19.5196 2 19.2652 2 19Z" fill="white"/>
</svg>
