<svg width="24" height="24" viewBox="0 0 24 24" fill="none" xmlns="http://www.w3.org/2000/svg">
<g clip-path="url(#clip0_1608_2237)">
<path d="M15.8656 14.073C16.7345 13.6687 17.5849 13.4937 18.4776 13.5526C19.737 13.6352 20.8257 14.1152 21.7351 14.9891C22.0672 15.3085 22.0891 15.8266 21.7976 16.1298C21.4788 16.4614 21.0224 16.4758 20.6649 16.1246C19.2788 14.7615 17.0249 14.7783 15.5665 16.194C13.5366 18.1642 10.485 18.1324 8.42375 16.1876C6.90402 14.754 4.9024 14.728 3.35664 16.1218C2.98351 16.4585 2.54038 16.4643 2.22104 16.1368C1.90749 15.8151 1.93526 15.3299 2.28815 14.9804C3.70085 13.5815 5.97842 13.146 7.81112 13.9246C7.91467 13.9685 8.01938 14.0112 8.15243 14.0667C8.15243 13.9159 8.15243 13.8021 8.15243 13.6877C8.15243 10.5693 8.14954 7.45024 8.15417 4.33177C8.15648 3.00156 9.22382 1.96592 10.5382 2.00058C11.7339 2.03235 12.7411 3.01253 12.7787 4.18102C12.7961 4.71299 12.5277 5.05493 12.0666 5.08901C11.5957 5.12366 11.2654 4.80714 11.215 4.27344C11.1641 3.7328 10.6614 3.41743 10.1743 3.62595C9.9267 3.73165 9.74158 3.92399 9.73522 4.18968C9.71555 4.98562 9.72828 5.78271 9.72828 6.5977H14.3002C14.3002 6.03858 14.3019 5.49275 14.3002 4.94692C14.2979 4.3699 14.2776 3.79518 14.5588 3.25628C15.0493 2.3171 16.0843 1.83654 17.1684 2.06411C18.1108 2.26165 18.8605 3.14885 18.9253 4.14405C18.9606 4.68122 18.7107 5.0324 18.2554 5.08439C17.7706 5.13984 17.4432 4.84353 17.3662 4.28037C17.2899 3.71952 16.8091 3.39606 16.3382 3.63692C16.1497 3.73338 16.0201 3.96846 15.898 4.16196C15.8436 4.24802 15.8679 4.38722 15.8679 4.50217C15.8668 7.58251 15.8668 10.6629 15.8668 13.7426C15.8668 13.8356 15.8668 13.9292 15.8668 14.073H15.8656ZM9.71844 12.793C9.71844 13.6005 9.71323 14.3774 9.72654 15.1543C9.7277 15.2351 9.82489 15.3333 9.90183 15.3905C11.0704 16.2633 12.7087 16.306 13.9456 15.5164C14.2042 15.3512 14.3488 15.1704 14.306 14.8441C14.273 14.5888 14.2996 14.3254 14.2996 14.0661V12.7925H9.71844V12.793ZM14.2846 8.20343H9.73753V11.1885H14.2846V8.20343Z" fill="white"/>
<path d="M5.82806 17.88C7.24944 17.9031 8.46314 18.3842 9.46742 19.365C10.1767 20.0575 11.023 20.4237 12.0117 20.4231C13.0119 20.4226 13.8583 20.0373 14.5762 19.3419C15.6325 18.319 16.9104 17.8338 18.3775 17.8915C19.6797 17.9429 20.8078 18.4339 21.745 19.3436C22.0626 19.6515 22.0846 20.1644 21.8063 20.4624C21.4945 20.7969 21.023 20.82 20.6748 20.4763C19.2644 19.0872 17.007 19.1305 15.5562 20.5462C13.5522 22.5014 10.485 22.4696 8.43537 20.5421C6.89597 19.0941 4.92791 19.0669 3.3486 20.4717C2.98009 20.7997 2.52365 20.7997 2.21299 20.4717C1.91044 20.1523 1.93069 19.67 2.27547 19.3378C3.27108 18.3784 4.46973 17.9089 5.82748 17.8806L5.82806 17.88Z" fill="white"/>
</g>
<defs>
<clipPath id="clip0_1608_2237">
<rect width="20" height="20" fill="white" transform="translate(2.00122 2)"/>
</clipPath>
</defs>
</svg>
