<svg width="24" height="24" viewBox="0 0 24 24" fill="none" xmlns="http://www.w3.org/2000/svg">
<path fill-rule="evenodd" clip-rule="evenodd" d="M8.00696 12.8211C8.01404 13.9776 8.7837 14.7333 9.95459 14.7456C10.8892 14.756 13.6759 14.7596 16.1314 14.7576L16.6605 15.0049C16.6605 15.0049 16.8563 15.0504 16.8514 15.2001C16.8463 15.359 16.8477 15.5182 16.849 15.6773C16.8505 15.8501 16.8519 16.0229 16.8451 16.1953C16.8353 16.4339 16.9086 16.6124 17.122 16.7264C17.122 16.7264 17.2137 16.8271 17.3563 16.7264C17.4989 16.6256 17.6244 16.5053 17.7474 16.3816C18.045 16.0818 18.8755 15.2187 19.3253 14.7504C19.6209 14.749 19.8645 14.7474 20.0418 14.7456C21.2205 14.7333 21.9832 13.9916 21.9911 12.829C22.0026 11.2481 22.0034 6.72065 21.9911 5.13973C21.9823 3.99909 21.224 3.24773 20.0726 3.23807C18.4714 3.22576 11.5424 3.22576 9.94129 3.23807C8.77393 3.24686 8.01307 4.01227 8.00696 5.17577C7.99817 6.74262 7.9972 11.2543 8.00696 12.8211ZM9.45374 5.26101C9.45643 4.80667 9.6045 4.67749 10.0806 4.67398C11.5922 4.6651 18.4331 4.66181 19.9447 4.67398C20.4059 4.67749 20.5531 4.82161 20.5548 5.2777C20.5592 6.76986 20.5592 11.2086 20.5548 12.7016C20.554 13.1586 20.4041 13.3106 19.9501 13.3124C19.2489 13.3144 17.4244 13.3142 15.5082 13.3139C13.2511 13.3137 10.8668 13.3134 10.0409 13.3167C9.63184 13.3185 9.4502 13.1252 9.4502 12.7288C9.45081 12.2056 9.45044 11.3273 9.45008 10.3404C9.44947 8.48461 9.44861 6.24489 9.45374 5.26101Z" fill="#444750"/>
<path fill-rule="evenodd" clip-rule="evenodd" d="M3.95582 18.7456C2.78418 18.7333 2.01404 17.9776 2.00696 16.8211C1.9972 15.2543 1.99817 10.7426 2.00696 9.17577C2.01319 8.01227 2.77454 7.24686 3.94251 7.23807C4.48926 7.23387 5.64759 7.23109 7 7.22977V8.66728C5.69874 8.66862 4.5918 8.67099 4.08191 8.67398C3.6056 8.67749 3.45728 8.80667 3.45472 9.261C3.44947 10.2538 3.45032 12.5254 3.45105 14.3909L3.45154 15.8119L3.45118 16.7288C3.45118 17.1252 3.63294 17.3185 4.04224 17.3167C4.86866 17.3134 7.23096 17.3137 9.46778 17.3139C11.3669 17.3141 13.1758 17.3144 13.8773 17.3123C14.3317 17.3106 14.4817 17.1586 14.4825 16.7016L14.4836 16.2288H15.923C15.922 16.4577 15.9209 16.6602 15.9197 16.829C15.9117 17.9916 15.1487 18.7333 13.9691 18.7456C12.9893 18.7554 10.0051 18.7598 7.49268 18.7576L6.96351 19.0049C6.96351 19.0049 6.7677 19.0504 6.77259 19.2001C6.77771 19.359 6.77637 19.5182 6.77503 19.6773C6.77356 19.8501 6.7721 20.0229 6.77894 20.1953C6.7887 20.4339 6.71546 20.6124 6.50208 20.7264C6.50208 20.7264 6.41028 20.8271 6.2677 20.7264C6.12513 20.6256 5.99964 20.5053 5.87659 20.3816C5.57862 20.0814 4.74646 19.2165 4.297 18.7486C4.16578 18.7477 4.05127 18.7467 3.95582 18.7456Z" fill="#444750"/>
<path d="M14.4519 9.24784H14.4514V9.34784C14.4514 9.39464 14.4511 9.44188 14.4509 9.48935C14.4505 9.58528 14.4501 9.68221 14.4514 9.77859L14.4514 9.7786C14.4536 9.9377 14.4986 10.0785 14.5858 10.1807C14.6745 10.2847 14.8005 10.3411 14.9452 10.3384C14.9452 10.3384 14.9453 10.3384 14.9453 10.3384L14.9434 10.2384M14.4519 9.24784L15.4291 9.08085M14.4519 9.24784C14.4518 9.23623 14.4517 9.22458 14.4516 9.2129C14.4508 9.10833 14.4499 9.00133 14.4534 8.89564L14.5533 8.8989L14.4534 8.89583C14.459 8.71128 14.5122 8.54707 14.6119 8.41247C14.7114 8.27798 14.8533 8.17848 15.0277 8.11657L15.0279 8.1165C15.0593 8.10541 15.0863 8.09668 15.112 8.08836C15.1446 8.07779 15.1753 8.06789 15.2105 8.05463L15.2106 8.05459C15.5606 7.92329 15.7649 7.56277 15.6977 7.19856L15.6976 7.19847C15.6298 6.82936 15.2939 6.55643 14.9222 6.56635L14.9221 6.56635C14.5405 6.57632 14.2317 6.85316 14.1797 7.23165M14.4519 9.24784L13.6187 7.71394L13.6063 7.81317C13.6064 7.81317 13.6064 7.81318 13.6064 7.81318C13.763 7.83273 13.9006 7.79716 14.0035 7.68672C14.1003 7.58269 14.1531 7.42553 14.1797 7.23165M14.9434 10.2384C15.1685 10.2345 15.3243 10.0579 15.3307 9.78701M14.9434 10.2384C14.7115 10.2428 14.5553 10.0609 14.5514 9.77722M14.9434 10.2384L14.5514 9.77722M15.3307 9.78701L15.4306 9.78951C15.4306 9.78946 15.4306 9.7894 15.4306 9.78935L15.3307 9.78701ZM15.3307 9.78701C15.3365 9.55324 15.3385 9.3185 15.3292 9.08474M15.3292 9.08474L15.4291 9.08085M15.3292 9.08474C15.3248 8.97177 15.3697 8.92824 15.4693 8.89205M15.3292 9.08474L15.4291 9.08077L15.4693 8.89205M15.4291 9.08085C15.4274 9.03765 15.4358 9.02534 15.439 9.02127C15.4444 9.01438 15.4585 9.00237 15.5035 8.98604L15.5036 8.986C16.7138 8.54472 17.0756 7.12469 16.2271 6.15692L16.2271 6.15691C15.7837 5.65116 15.0316 5.45972 14.3711 5.67796L15.4291 9.08085ZM15.4693 8.89205C16.6134 8.4749 16.9542 7.13785 16.1519 6.22284C15.7364 5.74896 15.0269 5.56654 14.4024 5.77292L15.4693 8.89205ZM14.5514 9.77722C14.5501 9.68172 14.5505 9.58642 14.5509 9.49106C14.551 9.47666 14.5511 9.46225 14.5511 9.44784H14.4523L14.5514 9.77722ZM14.1797 7.23165L14.0807 7.21805M14.1797 7.23165L14.0807 7.21805M14.0807 7.21805C14.1393 6.79111 14.4889 6.47764 14.9195 6.46639L14.0807 7.21805Z" fill="#444750" stroke="#444750" stroke-width="0.2"/>
<path fill-rule="evenodd" clip-rule="evenodd" d="M14.3 11.5688C14.3 11.2375 14.567 10.9688 14.8963 10.9688H14.9038C15.2331 10.9688 15.5 11.2375 15.5 11.5688C15.5 11.9002 15.2331 12.1688 14.9038 12.1688H14.8963C14.567 12.1688 14.3 11.9002 14.3 11.5688Z" fill="#444750"/>
</svg>
