<svg width="24" height="24" viewBox="0 0 24 24" fill="none" xmlns="http://www.w3.org/2000/svg">
<path fill-rule="evenodd" clip-rule="evenodd" d="M8.00695 12.8211C8.014 13.9776 8.78369 14.7333 9.95453 14.7456C10.8891 14.756 13.6759 14.7596 16.1314 14.7576L16.6605 15.005C16.6605 15.005 16.8563 15.0504 16.8514 15.2001C16.8463 15.359 16.8477 15.5182 16.849 15.6773C16.8505 15.8501 16.852 16.0229 16.8451 16.1953C16.8353 16.4339 16.9086 16.6124 17.122 16.7264C17.122 16.7264 17.2138 16.8271 17.3563 16.7264C17.4989 16.6256 17.6244 16.5053 17.7474 16.3816C18.045 16.0818 18.8754 15.2187 19.3253 14.7504C19.6207 14.749 19.8645 14.7474 20.0417 14.7456C21.2205 14.7333 21.9831 13.9916 21.9911 12.829C22.0025 11.2481 22.0034 6.72064 21.9911 5.13973C21.9823 3.99908 21.224 3.24773 20.0726 3.23806C18.4715 3.22576 11.5424 3.22576 9.9413 3.23806C8.77399 3.24685 8.01312 4.01226 8.00694 5.17576C7.99813 6.74261 7.99725 11.2543 8.00695 12.8211ZM9.45374 5.261C9.45639 4.80667 9.60451 4.67749 10.0806 4.67398C11.5922 4.66511 18.4331 4.6618 19.9447 4.67398C20.4058 4.67749 20.5531 4.82161 20.5548 5.2777C20.5593 6.76985 20.5593 11.2086 20.5549 12.7016C20.554 13.1586 20.4041 13.3106 19.95 13.3123C19.2485 13.3144 17.4226 13.3142 15.5054 13.3139C13.2492 13.3137 10.8665 13.3134 10.0409 13.3167C9.63184 13.3185 9.45022 13.1252 9.45022 12.7288C9.45083 12.2103 9.4505 11.343 9.45012 10.3669C9.44941 8.50597 9.44854 6.24958 9.45374 5.261Z" fill="white"/>
<path fill-rule="evenodd" clip-rule="evenodd" d="M3.95578 18.7456C2.78419 18.7333 2.01401 17.9776 2.00695 16.8211C1.99725 15.2543 1.99813 10.7426 2.00695 9.17576C2.01312 8.01226 2.77448 7.24685 3.94254 7.23806C4.48928 7.23387 5.64756 7.2311 7 7.22977V8.66728C5.6987 8.66863 4.59185 8.67099 4.08193 8.67398C3.60553 8.67749 3.45732 8.80667 3.45467 9.261C3.44946 10.2496 3.45033 12.5059 3.45105 14.3669C3.45142 15.343 3.45175 16.2103 3.45115 16.7288C3.45115 17.1252 3.63288 17.3185 4.04223 17.3167C4.86826 17.3134 7.22887 17.3137 9.4649 17.3139H9.46502H9.46696C11.3664 17.3142 13.1757 17.3144 13.8774 17.3123C14.3317 17.3106 14.4817 17.1586 14.4826 16.7016L14.4837 16.2288H15.923C15.922 16.4577 15.9209 16.6602 15.9197 16.829C15.9118 17.9916 15.1487 18.7333 13.9691 18.7456C12.9893 18.7554 10.0053 18.7598 7.49273 18.7576L6.96349 19.005C6.96349 19.005 6.76769 19.0504 6.77258 19.2001C6.77773 19.359 6.77637 19.5182 6.77501 19.6773C6.77354 19.8501 6.77206 20.0229 6.77892 20.1953C6.78869 20.4339 6.71545 20.6124 6.50207 20.7264C6.50207 20.7264 6.41027 20.8271 6.26769 20.7264C6.12512 20.6256 5.99963 20.5053 5.87658 20.3816C5.5786 20.0814 4.74649 19.2165 4.29702 18.7486C4.16577 18.7477 4.05126 18.7467 3.95578 18.7456Z" fill="white"/>
<path d="M14.9453 10.3384C14.8005 10.3411 14.6745 10.2847 14.5858 10.1807C14.4986 10.0785 14.4536 9.9377 14.4514 9.7786L14.4514 9.77859C14.4501 9.68221 14.4505 9.58528 14.4509 9.48935C14.4511 9.44188 14.4514 9.39464 14.4514 9.34784V9.24784H14.4519L14.3711 5.67796C15.0316 5.45972 15.7837 5.65116 16.2271 6.15691L16.2271 6.15692C17.0756 7.12469 16.7138 8.54472 15.5036 8.986L15.5035 8.98604C15.4585 9.00237 15.4444 9.01438 15.439 9.02127C15.4358 9.02534 15.4274 9.03765 15.4291 9.08085C15.4385 9.31766 15.4365 9.55479 15.4306 9.78951C15.427 9.94312 15.3807 10.0788 15.2947 10.1782C15.2077 10.2789 15.0853 10.3359 14.9453 10.3384ZM14.9453 10.3384C14.9452 10.3384 14.9452 10.3384 14.9452 10.3384L14.9434 10.2384L14.9453 10.3384C14.9453 10.3384 14.9453 10.3384 14.9453 10.3384ZM13.272 7.6012C13.3418 7.72812 13.4589 7.79485 13.6063 7.81317L14.3711 5.67797C13.7533 5.88182 13.2547 6.50293 13.2051 7.13589L13.2051 7.1359C13.1904 7.32341 13.2064 7.48203 13.272 7.6012Z" fill="white" stroke="white" stroke-width="0.2"/>
<path fill-rule="evenodd" clip-rule="evenodd" d="M14.3 11.5688C14.3 11.2375 14.567 10.9688 14.8963 10.9688H14.9038C15.2331 10.9688 15.5 11.2375 15.5 11.5688C15.5 11.9002 15.2331 12.1688 14.9038 12.1688H14.8963C14.567 12.1688 14.3 11.9002 14.3 11.5688Z" fill="white"/>
</svg>
