<svg width="24" height="24" viewBox="0 0 24 24" fill="none" xmlns="http://www.w3.org/2000/svg">
<g clip-path="url(#clip0_1397_5528)">
<path d="M2.00622 14.3398C2.00622 12.0858 1.99236 9.83124 2.01026 7.57781C2.02874 5.2215 3.5799 3.08944 5.79751 2.32076C8.62437 1.34114 11.677 2.66869 12.8771 5.42552C13.1035 5.94567 13.2773 6.44502 13.9992 6.23176C15.3459 6.3618 16.3225 7.02586 16.9017 8.25517C16.9739 8.40832 17.0472 8.47883 17.2389 8.48346C17.8979 8.49848 18.4176 8.79093 18.6798 9.40933C18.838 9.78269 18.9992 10.1925 19.0021 10.5866C19.0078 11.3397 18.5736 11.8564 17.8881 12.1604C15.7542 13.1082 13.6215 14.059 11.487 15.0062C10.4499 15.4663 9.50795 15.0906 9.02978 14.0624C8.78261 13.5313 8.65844 13.0117 8.92698 12.4574C8.96048 12.3887 8.9882 12.306 9.04364 12.2604C9.34047 12.0165 9.27579 11.7645 9.15798 11.4362C8.68963 10.1318 8.96279 8.95507 9.88563 7.93267C10.019 7.78529 10.0421 7.67837 9.95147 7.50788C9.83885 7.29635 9.75512 7.06979 9.65694 6.85074C9.22151 5.8769 8.25766 5.37235 7.22855 5.57752C6.25142 5.77287 5.53879 6.65482 5.53763 7.70496C5.53301 12.1841 5.53532 16.6638 5.53532 21.1429C5.53532 21.8249 5.36265 21.9988 4.68755 21.9988C4.02342 21.9988 3.35872 22.0012 2.6946 21.9983C2.22567 21.996 2.00506 21.7752 2.00506 21.3047C2.00333 18.9831 2.00448 16.6615 2.00448 14.3398H2.00564H2.00622ZM3.17161 20.8013H4.35895C4.35895 20.6493 4.35895 20.5251 4.35895 20.4002C4.35895 16.2112 4.35433 12.0223 4.36588 7.83384C4.36704 7.43563 4.40977 7.01893 4.5322 6.64326C4.95898 5.33189 6.1544 4.41641 7.43703 4.36209C8.92294 4.29967 10.1392 5.04291 10.7357 6.37798C10.8437 6.61956 10.9534 6.85999 11.0684 7.11602C11.438 6.949 11.7752 6.797 12.1286 6.6369C12.0108 6.36469 11.9075 6.1179 11.7977 5.87401C10.7992 3.64658 8.30328 2.61667 6.03313 3.494C4.29658 4.16558 3.1745 5.83702 3.17219 7.78009C3.16815 12.0269 3.17103 16.2731 3.17103 20.5199C3.17103 20.606 3.17103 20.6915 3.17103 20.8008L3.17161 20.8013ZM10.4308 11.3767C12.2545 10.5641 14.0823 9.74975 15.9072 8.93599C15.4094 7.64485 14.1308 7.08424 12.9025 7.59283C12.4058 7.79858 11.9132 8.01647 11.4264 8.24476C10.2252 8.80827 9.73953 10.3127 10.4302 11.3767H10.4308ZM17.8424 10.4485C17.8037 10.3497 17.7448 10.1792 17.6709 10.015C17.5081 9.65381 17.3475 9.59023 16.9912 9.74686C16.2445 10.0751 15.4989 10.4063 14.7534 10.738C13.2802 11.3934 11.8052 12.0454 10.3372 12.7129C10.1882 12.7805 9.96071 12.9736 9.98034 13.0614C10.0468 13.3556 10.1646 13.6625 10.3465 13.9C10.5064 14.1092 10.7796 14.0335 11.0135 13.9283C12.0645 13.4573 13.1179 12.9915 14.1707 12.5233C15.2495 12.0436 16.3271 11.561 17.4064 11.0831C17.6519 10.9744 17.8303 10.8213 17.8424 10.4485Z" fill="#363940"/>
<path d="M13.1432 20.558C13.1432 20.6112 13.1507 20.7077 13.1421 20.8025C13.1144 21.0978 12.8868 21.3255 12.6044 21.3498C12.3313 21.3735 12.0541 21.2082 12.0027 20.925C11.9501 20.6366 11.9374 20.3332 11.9617 20.0413C11.9836 19.7784 12.2891 19.5732 12.5484 19.5876C12.8233 19.6027 13.0572 19.8067 13.1034 20.0858C13.1265 20.2274 13.1288 20.3719 13.1444 20.558H13.1432Z" fill="#363940"/>
<path d="M22.001 16.7938C21.9756 17.0817 21.8896 17.2724 21.6638 17.3805C21.4282 17.4932 21.2075 17.4556 21.0187 17.2932C20.8512 17.1498 20.6953 16.9898 20.5527 16.8216C20.3419 16.5731 20.3667 16.2263 20.5937 16.0136C20.8073 15.813 21.1521 15.8021 21.3837 16.0055C21.5494 16.1511 21.7082 16.3084 21.848 16.4794C21.9288 16.5788 21.9646 16.7147 22.0016 16.7938H22.001Z" fill="#363940"/>
<path d="M17.5941 17.7769C17.5866 17.4273 17.7153 17.2348 17.9631 17.1406C18.2247 17.0412 18.4655 17.1082 18.6324 17.3325C18.7693 17.5163 18.8882 17.7174 18.9887 17.9243C19.1135 18.1803 19.0459 18.4179 18.8357 18.6005C18.6232 18.7855 18.3621 18.8138 18.1456 18.6456C17.8441 18.4115 17.6865 18.0694 17.5946 17.7769H17.5941Z" fill="#363940"/>
<path d="M18.7133 15.1443C18.5239 15.053 18.3789 15.0143 18.2761 14.9264C18.1092 14.7837 17.9597 14.6172 17.8211 14.4456C17.642 14.2231 17.6692 13.8763 17.8621 13.6792C18.0734 13.4631 18.4113 13.4342 18.6463 13.6382C18.8271 13.7948 18.9957 13.9705 19.1435 14.1584C19.2908 14.345 19.3324 14.5814 19.1782 14.7744C19.0581 14.9247 18.8721 15.0224 18.7133 15.1449V15.1443Z" fill="#363940"/>
<path d="M12.0385 16.869C12.0385 16.7539 12.0293 16.6383 12.0403 16.5245C12.068 16.2471 12.2678 16.0477 12.5416 16.0124C12.8089 15.9778 13.0919 16.1228 13.1479 16.3869C13.2091 16.6736 13.2346 16.977 13.2161 17.2695C13.1982 17.5573 12.9418 17.737 12.6519 17.737C12.3556 17.737 12.1159 17.5388 12.0692 17.2435C12.0495 17.1209 12.0547 16.9944 12.0484 16.8695C12.0449 16.8695 12.042 16.8695 12.0385 16.8695V16.869Z" fill="#363940"/>
<path d="M15.5226 20.0367C15.5036 20.0367 15.4839 20.0379 15.4649 20.0367C14.9492 19.9916 14.9249 19.5628 14.821 19.2027C14.7153 18.8369 14.7881 18.5988 15.0352 18.4398C15.3448 18.2399 15.7559 18.3676 15.8934 18.7219C15.9731 18.927 16.0331 19.1415 16.0793 19.3565C16.155 19.709 15.8836 20.0321 15.5226 20.0379V20.0367Z" fill="#363940"/>
<path d="M15.582 16.4054C15.6421 16.4054 15.6328 16.4054 15.623 16.4054C15.176 16.3858 15.1096 16.0049 14.9612 15.7038C14.8341 15.446 14.8035 15.1894 15.0114 14.9536C15.2632 14.6675 15.7218 14.6895 15.925 15.0195C16.0538 15.2293 16.1555 15.4634 16.2253 15.6998C16.3345 16.0679 16.0405 16.4135 15.5814 16.406L15.582 16.4054Z" fill="#363940"/>
</g>
<defs>
<clipPath id="clip0_1397_5528">
<rect width="20" height="20" fill="white" transform="translate(2.00098 2)"/>
</clipPath>
</defs>
</svg>
