<svg width="24" height="24" viewBox="0 0 24 24" fill="none" xmlns="http://www.w3.org/2000/svg">
<path fill-rule="evenodd" clip-rule="evenodd" d="M5.79342 15.7747C6.59316 14.852 7.70345 14.3077 8.88887 14.3077H15.1111C16.2965 14.3077 17.4068 14.852 18.2066 15.7747C19.0033 16.6941 19.4359 17.9201 19.4359 19.1795V21.2308C19.4359 21.6556 19.0915 22 18.6667 22C18.2418 22 17.8974 21.6556 17.8974 21.2308V19.1795C17.8974 18.2627 17.5808 17.4018 17.044 16.7823C16.5101 16.1663 15.8117 15.8462 15.1111 15.8462H8.88887C8.18831 15.8462 7.48987 16.1663 6.95601 16.7823C6.41916 17.4018 6.10255 18.2627 6.10255 19.1795V21.2308C6.10255 21.6556 5.75815 22 5.33332 22C4.90848 22 4.56409 21.6556 4.56409 21.2308V19.1795C4.56409 17.9201 4.99668 16.6941 5.79342 15.7747Z" fill="#444750"/>
<path fill-rule="evenodd" clip-rule="evenodd" d="M12 3.53846C10.159 3.53846 8.66664 5.03085 8.66664 6.87179C8.66664 8.71274 10.159 10.2051 12 10.2051C13.8409 10.2051 15.3333 8.71274 15.3333 6.87179C15.3333 5.03085 13.8409 3.53846 12 3.53846ZM7.12817 6.87179C7.12817 4.18118 9.30935 2 12 2C14.6906 2 16.8718 4.18118 16.8718 6.87179C16.8718 9.56241 14.6906 11.7436 12 11.7436C9.30935 11.7436 7.12817 9.56241 7.12817 6.87179Z" fill="#444750"/>
</svg>
